<svg xmlns="http://www.w3.org/2000/svg" fill="none" viewBox="0 0 200 272">
   <rect width="200" height="272" fill="#F5FBFF" rx="8" />
   <path
      fill="#fff"
      d="M88.958 197.646h81.092c4.938 0 8.984-4.046 8.984-8.984l.109-162.51c0-4.938-4.046-8.984-8.984-8.984H89.067c-4.938 0-8.984 4.046-8.984 8.984l-.108 162.51c0 4.938 4.046 8.984 8.983 8.984Z"
   />
   <path
      fill="#000"
      d="M170.05 197.863H88.958a9.132 9.132 0 0 1-6.504-2.697 9.133 9.133 0 0 1-2.697-6.504l.109-162.51c0-5.069 4.133-9.202 9.201-9.202h81.092c2.458 0 4.764.957 6.504 2.698a9.132 9.132 0 0 1 2.697 6.503l-.109 162.511c0 5.068-4.111 9.201-9.201 9.201ZM89.089 17.385c-4.83 0-8.766 3.937-8.766 8.766l-.11 162.511c0 2.327.915 4.524 2.568 6.199a8.691 8.691 0 0 0 6.177 2.567h81.092c4.829 0 8.766-3.937 8.766-8.766l.109-162.51c0-2.328-.913-4.525-2.567-6.2a8.689 8.689 0 0 0-6.177-2.567H89.089Z"
   />
   <path
      fill="#000"
      d="M167.375 192.141h-75.72a6.98 6.98 0 0 1-4.959-2.067 6.98 6.98 0 0 1-2.066-4.959l.109-155.898c0-3.872 3.154-7.026 7.026-7.026h75.719c1.871 0 3.632.74 4.959 2.067a6.98 6.98 0 0 1 2.067 4.96l-.109 155.897c0 3.872-3.154 7.026-7.026 7.026ZM91.765 22.605a6.6 6.6 0 0 0-6.591 6.59l-.11 155.898c0 1.762.675 3.415 1.937 4.655a6.55 6.55 0 0 0 4.655 1.936h75.719a6.6 6.6 0 0 0 6.591-6.591l.109-155.898a6.464 6.464 0 0 0-1.936-4.655c-1.262-1.24-2.893-1.935-4.655-1.935h-75.72Z"
   />
   <path
      fill="#000"
      d="M138.924 27.717h-19.685c-.131 0-.218-.087-.218-.217s.087-.218.218-.218h19.685c.131 0 .218.087.218.218 0 .13-.109.217-.218.217ZM167.462 85.358H134.29c-.13 0-.217-.087-.217-.217s.087-.218.217-.218h33.172c.131 0 .218.087.218.218 0 .109-.109.217-.218.217ZM167.439 89.492h-33.172c-.13 0-.217-.087-.217-.218 0-.13.087-.218.217-.218h33.172c.131 0 .218.088.218.218s-.087.218-.218.218ZM149.385 93.646h-15.118c-.13 0-.217-.087-.217-.218 0-.13.087-.217.217-.217h15.118c.13 0 .217.087.217.217a.218.218 0 0 1-.217.218Z"
   />
   <path
      fill="#DFF3FE"
      d="M149.387 77.702H134.27v4.394h15.117v-4.394ZM129.525 77.702h-22.317v22.317h22.317V77.702ZM101.291 95.275h-9.789a.197.197 0 0 1-.152-.065.197.197 0 0 1-.065-.152v-9.789c0-.13.087-.217.217-.217h9.245c.13 0 .217.087.217.217 0 .131-.087.218-.217.218H91.72v9.354h9.353V87.9c0-.13.087-.217.218-.217.13 0 .217.087.217.218v7.156c0 .13-.087.217-.217.217Z"
   />
   <path
      fill="#3E94D3"
      d="M96.396 93.6c-.065 0-.13-.043-.174-.087l-3.828-5.372a.234.234 0 0 1 .043-.305c.11-.065.24-.043.305.044l3.654 5.133 6.526-9.07c.065-.087.196-.131.304-.044.087.065.131.196.044.305l-6.7 9.331c-.043.022-.108.066-.174.066Z"
   />
   <path
      fill="#000"
      d="M167.443 116.395h-33.172c-.131 0-.218-.087-.218-.217 0-.131.087-.218.218-.218h33.172c.131 0 .218.087.218.218 0 .109-.109.217-.218.217ZM167.419 120.528h-33.172c-.131 0-.218-.087-.218-.218 0-.13.087-.217.218-.217h33.172c.13 0 .217.087.217.217 0 .131-.087.218-.217.218ZM149.364 124.661h-15.117c-.131 0-.218-.087-.218-.218 0-.13.087-.217.218-.217h15.117c.131 0 .218.087.218.217 0 .131-.087.218-.218.218Z"
   />
   <path
      fill="#DFF3FE"
      d="M149.366 108.717h-15.117v4.394h15.117v-4.394ZM129.504 108.717h-22.317v22.318h22.317v-22.318ZM101.272 124.38h-9.789a.199.199 0 0 1-.152-.065.199.199 0 0 1-.065-.153v-9.788c0-.131.087-.218.217-.218h9.245c.13 0 .217.087.217.218 0 .13-.087.217-.217.217h-9.027v9.354h9.353v-6.939c0-.131.087-.218.218-.218.13 0 .217.087.217.218v7.156c0 .131-.087.218-.217.218Z"
   />
   <path
      fill="#3E94D3"
      d="M96.377 122.704c-.065 0-.13-.043-.173-.087l-3.829-5.373a.233.233 0 0 1 .044-.304c.108-.065.239-.044.304.043l3.654 5.134 6.526-9.071c.065-.087.196-.13.305-.043.087.065.13.195.043.304l-6.7 9.332c-.043.022-.108.065-.174.065Z"
   />
   <path
      fill="#000"
      d="M167.421 147.566h-33.172c-.131 0-.218-.087-.218-.217 0-.131.087-.218.218-.218h33.172c.13 0 .217.087.217.218 0 .13-.109.217-.217.217ZM167.398 151.719h-33.172c-.131 0-.218-.087-.218-.217 0-.131.087-.218.218-.218h33.172c.13 0 .217.087.217.218a.217.217 0 0 1-.217.217ZM149.343 155.853h-15.117c-.131 0-.218-.087-.218-.217 0-.131.087-.218.218-.218h15.117c.131 0 .218.087.218.218 0 .13-.087.217-.218.217Z"
   />
   <path
      fill="#DFF3FE"
      d="M149.345 139.91h-15.118v4.393h15.118v-4.393ZM129.483 139.91h-22.318v22.317h22.318V139.91ZM101.248 155.572h-9.789a.196.196 0 0 1-.152-.065.197.197 0 0 1-.065-.152v-9.789c0-.13.087-.217.217-.217h9.245c.13 0 .217.087.217.217 0 .131-.087.218-.217.218h-9.027v9.353h9.353v-6.939c0-.13.087-.217.218-.217.13 0 .217.087.217.217v7.157a.217.217 0 0 1-.217.217Z"
   />
   <path
      fill="#3E94D3"
      d="M96.354 153.897c-.066 0-.13-.044-.174-.087l-3.829-5.373c-.065-.087-.043-.239.044-.305.108-.065.239-.043.304.044l3.655 5.133 6.525-9.07c.065-.087.196-.131.305-.044.087.065.13.196.043.305l-6.7 9.331c-.043.022-.108.066-.173.066Z"
   />
   <path fill="#7BBEE4" d="M159.914 55.148h-14.922l14.639-20.403h15.009l-14.726 20.403Z" />
   <path
      fill="#7BBEE4"
      d="M159.914 55.149c0 3.654-3.35 6.612-7.461 6.612-4.111 0-7.461-2.958-7.461-6.612l7.461-.696 7.461.696ZM129.657 55.148h-14.922l14.639-20.403h14.922l-14.639 20.403Z"
   />
   <path
      fill="#7BBEE4"
      d="M129.656 55.149c0 3.654-3.35 6.612-7.461 6.612-4.111 0-7.461-2.958-7.461-6.612l7.461-.696 7.461.696ZM99.702 55.147H84.78l15.01-20.403h15.095L99.702 55.147Z"
   />
   <path
      fill="#7BBEE4"
      d="M99.703 55.148c0 3.654-3.35 6.612-7.462 6.612-4.11 0-7.46-2.958-7.46-6.612l7.46-.696 7.462.696Z"
   />
   <path
      fill="#fff"
      d="m129.373 34.744-14.704 20.403H99.747l15.096-20.403c-.022 0 14.073-.022 14.53 0Z"
   />
   <path
      fill="#fff"
      d="M107.251 62.565h-.108c-4.09 0-7.396-2.937-7.396-6.591v-.848l14.922-.044V56.018c-.044 3.632-3.35 6.547-7.418 6.547Z"
   />
   <path
      fill="#000"
      d="M107.251 62.782h-.109c-4.177 0-7.613-3.045-7.613-6.808v-.848c0-.11.087-.218.217-.218l14.922-.044c.044 0 .109.022.152.066a.196.196 0 0 1 .066.152v.935c-.044 3.742-3.481 6.765-7.635 6.765Zm-7.31-7.417v.63c.023 3.503 3.242 6.374 7.179 6.374h.109c3.937 0 7.156-2.85 7.2-6.33v-.696l-14.487.022ZM114.993 35.092c-.131 0-.218-.087-.218-.217s.087-.218.218-.218c2.218 0 4.437 0 6.699-.021 2.393 0 4.829-.022 7.418-.022.13 0 .217.087.217.217s-.087.218-.217.218c-2.589 0-5.025 0-7.418.022-2.262.021-4.481.021-6.699.021Z"
   />
   <path
      fill="#fff"
      d="M144.88 55.148h-15.161l14.443-20.382 15.553-.021-14.835 20.403ZM144.797 55.15c0 3.654-3.35 6.612-7.461 6.612-4.111 0-7.461-2.959-7.461-6.613h14.922Z"
   />
   <path
      fill="#000"
      d="M137.334 61.979c-2.044 0-3.98-.718-5.416-2.001-1.457-1.284-2.262-3.002-2.262-4.83 0-.13.087-.217.217-.217h14.922c.066 0 .109.022.153.066a.199.199 0 0 1 .065.152c0 3.763-3.437 6.83-7.679 6.83Zm-7.243-6.613c.065 1.632.805 3.133 2.11 4.307 1.37 1.218 3.197 1.893 5.133 1.893 3.916 0 7.113-2.763 7.244-6.178h-14.487v-.022ZM159.303 35.092h-14.922c-.13 0-.217-.087-.217-.218 0-.13.087-.217.217-.217h14.922c.131 0 .218.087.218.217s-.087.218-.218.218Z"
   />
   <path
      fill="#fff"
      d="M77.496 62.566h-.11c-4.088 0-7.395-2.937-7.395-6.591v-.848l4.807-2.567 10.115 2.523V56.02c-.043 3.632-3.35 6.547-7.417 6.547Z"
   />
   <path
      fill="#000"
      d="M77.496 62.783h-.11c-4.176 0-7.613-3.045-7.613-6.808v-.849c0-.087.044-.152.11-.195l4.806-2.567c.044-.022.11-.022.153-.022l10.115 2.523a.234.234 0 0 1 .174.218v.935c-.044 3.742-3.46 6.765-7.635 6.765Zm-7.287-7.504v.717c.021 3.502 3.24 6.374 7.178 6.374h.109c3.937 0 7.156-2.85 7.2-6.33v-.761L74.82 52.82l-4.611 2.458Z"
   />
   <path fill="#fff" d="m99.813 34.744-14.9 20.403H69.99l15.183-20.403s14.182-.022 14.639 0Z" />
   <path
      fill="#000"
      d="M84.912 55.365H69.99a.228.228 0 0 1-.196-.109c-.043-.065-.022-.152.022-.217L84.76 34.722a.198.198 0 0 1 .174-.087c.065 0 5.633.022 14.465.022.13 0 .217.087.217.217s-.087.218-.217.218h-.174c-8.048 0-13.356-.022-14.182-.022l-14.64 19.882H84.89c.13 0 .218.087.218.217.021.087-.066.196-.196.196Z"
   />
   <path
      fill="#7BBEE4"
      d="M159.913 55.364h-75.22c-.13 0-.217-.087-.217-.217s.087-.218.218-.218h75.219c.13 0 .217.087.217.218a.233.233 0 0 1-.217.217Z"
   />
   <path
      fill="#000"
      d="M14.063 260.977h30.41c.136 0 .226-.091.226-.226 0-.136-.09-.227-.226-.227h-30.41c-.136 0-.226.091-.226.227 0 .113.09.226.226.226Z"
   />
   <path
      fill="#fff"
      d="M48.455 177.373s-22.468-8.689-36.654 4.932c-14.187 13.621-15.07 72.812 32.672 78.446h70.956l-66.974-83.378Z"
   />
   <path
      fill="#000"
      d="M44.473 260.977h70.956c.091 0 .159-.045.204-.135.045-.068.023-.181-.023-.249l-66.974-83.378c-.022-.023-.068-.046-.09-.068-.045-.023-5.725-2.195-13.078-2.648-6.788-.43-16.427.543-23.826 7.648-3.937 3.779-6.878 10.996-8.032 19.776-1.244 9.389-.317 19.345 2.602 28.079 2.76 8.236 7.127 15.024 12.965 20.228 6.72 5.951 15.205 9.571 25.25 10.77.023-.023.046-.023.046-.023Zm70.504-.452H44.496C26.01 258.33 12.57 247.447 6.665 229.843c-6.313-18.847-2.263-40.093 5.317-47.379 7.263-6.969 16.788-7.942 23.486-7.512 6.878.43 12.286 2.376 12.874 2.602l66.635 82.971Z"
   />
   <path
      fill="#000"
      d="M22.797 214.571a.206.206 0 0 0 .18-.091c.069-.09.069-.249-.045-.317-3.484-2.76-6.063-6.652-7.263-10.951-.022-.113-.158-.181-.271-.158-.113.022-.181.158-.159.271a21.928 21.928 0 0 0 7.422 11.2c.022.023.068.046.136.046Z"
   />
   <path
      fill="#7BBEE4"
      d="M37.573 221.427c-5.815-1.561-10.793-3.688-14.39-6.765 0 0-.543-24.595 9.526-42.854a14.508 14.508 0 0 1 3.733-4.39c3.462-2.692 10.499-6.72 21.586-6.494 0 0 14.277 2.376 17.806 8.576 3.575 6.245 9.526 23.803 9.526 23.803l-47.787 28.124Z"
   />
   <path
      fill="#000"
      d="M67.282 193.618c.09 0 .18-.067.226-.158l3.937-13.621c.045-.113-.045-.249-.158-.272-.114-.045-.25.046-.272.159l-3.937 13.621c-.045.113.045.249.158.271h.046Z"
   />
   <path
      fill="#fff"
      d="M30.065 218.827s5.475-16.201 28.464-16.382c14.594-.113 32.717.091 43.985.272a17.283 17.283 0 0 1 15.341 9.819l19.526 40.705 6.72 5.272c.951.747.408 2.24-.769 2.24h-39.03a7.398 7.398 0 0 1-3.666-.973c-5.34-3.009-21.812-12.987-37.04-29.437-10.543-6.923-21.358-6.426-33.531-11.516Z"
   />
   <path
      fill="#000"
      d="M104.278 260.98h39.031a1.46 1.46 0 0 0 1.402-.996 1.46 1.46 0 0 0-.497-1.652l-6.675-5.226-19.504-40.66c-2.896-6.041-8.847-9.842-15.522-9.933-12.195-.181-29.73-.385-43.985-.271a.226.226 0 0 0 0 .452c14.254-.113 31.79.091 43.985.272 6.517.09 12.309 3.801 15.137 9.684l19.504 40.682c.023.023.046.068.068.09l6.72 5.272c.43.34.453.815.34 1.154-.114.34-.43.702-.973.702h-39.031a7.237 7.237 0 0 1-3.552-.928c-4.797-2.692-21.631-12.806-36.972-29.392l-.045-.045c-6.222-4.095-12.512-5.611-19.187-7.218-4.616-1.108-9.39-2.24-14.368-4.321-.113-.046-.249 0-.294.113-.045.113 0 .249.113.294 5.023 2.104 9.82 3.236 14.436 4.344 6.607 1.584 12.852 3.077 19.006 7.128 15.386 16.607 32.265 26.744 37.062 29.459a7.755 7.755 0 0 0 3.801.996Z"
   />
   <path
      fill="#000"
      d="M127.696 260.979h1.969c.859 0 1.583-.543 1.81-1.38.226-.837-.113-1.674-.86-2.104l-5.272-3.123-42.017-40.546a30.917 30.917 0 0 0-21.065-8.689l-3.711-.045a.227.227 0 0 0-.226.226c0 .136.09.227.226.227l3.71.045a30.461 30.461 0 0 1 20.772 8.553l42.039 40.546c.023.023.023.023.046.023l5.294 3.145c.679.407.77 1.109.656 1.606-.135.475-.565 1.041-1.38 1.041h-1.968c-.136 0-.226.091-.226.226-.023.136.067.249.203.249Z"
   />
   <path
      fill="#000"
      d="M97.083 227.199c.023 0 .045 0 .068-.023a.226.226 0 0 0 .136-.294l-4.345-13.033a.225.225 0 0 0-.294-.135.226.226 0 0 0-.135.294l4.344 13.033a.235.235 0 0 0 .226.158ZM62.782 229.755a.205.205 0 0 0 .158-.067c.09-.091.068-.227-.022-.317-2.919-2.67-5.566-5.657-7.92-8.825-.067-.09-.226-.113-.316-.045a.244.244 0 0 0-.045.317 60.747 60.747 0 0 0 7.987 8.892c.045.045.09.045.158.045ZM94.39 256.251l30.818-1.494a.226.226 0 0 0 0-.452l-30.795 1.493a.227.227 0 0 0-.226.226c-.023.136.09.227.204.227ZM124.349 253.468h13.01a.214.214 0 0 0 .226-.226c0-.136-.091-.227-.226-.227h-13.01c-.136 0-.227.091-.227.227 0 .113.113.226.227.226Z"
   />
   <path
      fill="#7BBEE4"
      d="m50.45 174.544 7.602 18.644s24.3.34 26.609 4.209c2.285 3.869-1.403 5.408-1.403 5.408s-28.034 4.163-35.817 1.267c-7.784-2.919-12.604-20.432-13.667-26.971-1.063-6.562 16.676-2.557 16.676-2.557Z"
   />
   <path
      fill="#000"
      d="M47.441 204.299c.09 0 .181-.046.204-.136.045-.113-.023-.249-.136-.294-6.154-2.308-10.205-14.029-11.675-18.961a.245.245 0 0 0-.272-.158.245.245 0 0 0-.158.271c1.833 6.2 5.837 16.97 11.947 19.255.045 0 .068.023.09.023ZM84.66 197.623c.046 0 .069 0 .114-.023.113-.068.136-.203.09-.316-2.262-3.824-24.414-4.277-26.654-4.322l-6.765-16.563c-.045-.113-.18-.181-.294-.113-.113.046-.18.181-.113.294l6.81 16.676c.046.091.114.136.204.136.249 0 24.21.384 26.405 4.095.045.091.113.136.204.136ZM103.238 206.04H58.121a2.029 2.029 0 0 1-2.037-2.037c0-1.131.905-2.036 2.037-2.036h48.601l-3.484 4.073Z"
   />
   <path
      fill="#000"
      d="m103.238 206.04-33.057-.589 11.811-27.513a2.75 2.75 0 0 1 2.512-1.652h30.545c1.539 0 2.602 1.584 1.991 3.009l-10.476 24.663a3.427 3.427 0 0 1-3.326 2.082Z"
   />
   <path
      fill="#7BBEE4"
      d="M101.066 185.404c0 .566-.453 1.041-1.041 1.041-.566 0-1.04-.453-1.04-1.041 0-.566.452-1.041 1.04-1.041.588 0 1.041.453 1.041 1.041Z"
   />
   <path
      fill="#000"
      d="M59.93 164.952a.206.206 0 0 0 .18-.091c.25-.316.612-.724.996-1.176.589-.702 1.267-1.471 1.697-2.014.068-.09.068-.249-.045-.317-.09-.068-.249-.068-.317.046-.43.52-1.086 1.312-1.674 1.991-.385.452-.747.882-1.018 1.176-.09.091-.068.249.022.317.068.045.114.068.159.068Z"
   />
   <path
      fill="#fff"
      d="m57.825 154.069-3.326 4.933a4.178 4.178 0 0 1-1.878 1.539l-2.194.927s4.253 9.549 11.63 7.761c0 0 4.796-1.471.248-7.354l1.494-1.923-5.974-5.883Z"
   />
   <path
      fill="#000"
      d="M50.448 161.694c.023 0 .068 0 .09-.022l2.196-.928a4.338 4.338 0 0 0 1.968-1.629l3.326-4.933c.068-.113.046-.249-.068-.316-.113-.068-.249-.046-.316.067l-3.326 4.933a4.006 4.006 0 0 1-1.765 1.471l-2.195.927c-.113.046-.158.181-.113.295.022.09.113.135.203.135Z"
   />
   <path
      fill="#000"
      d="M60.835 163.911a.206.206 0 0 0 .181-.091l2.987-3.733c.068-.091.068-.227-.023-.294l-5.973-5.883a.218.218 0 0 0-.317 0 .218.218 0 0 0 0 .316l5.838 5.748-2.874 3.575c-.068.09-.068.248.045.316.023.023.068.046.136.046Z"
   />
   <path
      fill="#000"
      d="M57.554 141.76c.927.181 1.674.656 2.172 1.403.249-1.132.995-2.127 1.968-2.783.95-.656 2.104-.996 3.258-1.132 2.535-.294 5.227.498 7.037 2.286 1.81 1.787 2.648 4.593 1.856 7.014-.792 2.421-3.281 4.254-5.815 4.05.294 1.403.497 2.851.271 4.254-.226 1.403-.927 2.805-2.127 3.575-1.357.882-3.167.837-4.66.226-1.494-.611-2.716-1.742-3.802-2.941-.634-.702-1.2-1.449-1.81-2.173-.317-.362-.611-.746-.95-1.086-.227-.226-.498-.384-.657-.656-.905-1.448-1.538-2.466-1.29-5.272.114-1.018 1.54-7.353 4.549-6.765Z"
   />
   <path
      fill="#fff"
      d="M66.106 147.031s1.335 3.62 1.697 6.245a1.572 1.572 0 0 1-.792 1.584c-.905.52-2.579 1.108-5.249.792-4.412-.521-4.457-3.847-4.684-5.159-.271-1.629.475-2.896 3.078-2.24 3.665.927 5.95-1.222 5.95-1.222Z"
   />
   <path
      fill="#000"
      d="M63.21 155.991c1.878 0 3.122-.475 3.914-.927a1.8 1.8 0 0 0 .906-1.81c-.362-2.625-1.698-6.268-1.698-6.291-.022-.067-.09-.113-.158-.135a.217.217 0 0 0-.204.045c-.022.023-2.262 2.059-5.747 1.177-1.29-.317-2.24-.227-2.828.316-.498.475-.701 1.222-.52 2.172.022.114.045.227.045.362.204 1.449.61 4.48 4.82 4.978.52.068 1.018.113 1.47.113Zm2.806-8.575c.316.928 1.29 3.756 1.561 5.905a1.342 1.342 0 0 1-.679 1.358c-.905.52-2.534 1.086-5.113.769-3.87-.452-4.231-3.145-4.435-4.593-.023-.136-.045-.271-.045-.384-.09-.566-.09-1.313.384-1.765.453-.43 1.29-.498 2.421-.227 3.055.77 5.182-.52 5.906-1.063Z"
   />
   <path
      fill="#fff"
      d="M57.009 155.291s-.679-1.313-1.131-2.67c0 0-2.76-1.448-3.19.769-.43 2.217 2.918 4.095 4.321 1.901Z"
   />
   <path
      fill="#000"
      d="M55.29 156.49c.68 0 1.404-.294 1.901-1.086a.205.205 0 0 0 0-.226c0-.023-.678-1.313-1.13-2.648-.023-.045-.069-.113-.114-.135-.068-.046-1.607-.815-2.647-.317-.453.226-.747.633-.86 1.244-.249 1.358.724 2.512 1.833 2.942.316.158.678.226 1.018.226Zm1.449-1.222c-.52.747-1.38.973-2.285.611-.905-.362-1.765-1.335-1.562-2.444.09-.475.295-.769.611-.927.657-.317 1.72.045 2.172.271.385 1.109.906 2.15 1.064 2.489Z"
   />
   <path
      fill="#000"
      d="M55.992 155.02a.206.206 0 0 0 .159-.068.219.219 0 0 0 0-.317 2.426 2.426 0 0 0-2.082-.633c-.113.022-.203.135-.18.248.022.114.135.204.248.181.611-.09 1.245.114 1.697.521a.246.246 0 0 0 .158.068Z"
   />
</svg>
