<svg xmlns="http://www.w3.org/2000/svg" fill="none" viewBox="0 0 200 272">
   <rect width="200" height="272" fill="#F5FBFF" rx="8" />
   <path
      fill="#fff"
      d="M178.084 117.237v1.801a4.912 4.912 0 0 1-4.922 4.907H28.556c-2.716 0-4.921-2.206-4.921-4.907v-1.801h154.449Z"
   />
   <path
      fill="#000"
      d="M173.162 124.095H28.557c-2.791 0-5.072-2.265-5.072-5.056v-1.801c0-.09.06-.15.15-.15s.15.06.15.15v1.801a4.76 4.76 0 0 0 4.772 4.756h144.605c2.626 0 4.772-2.13 4.772-4.756v-1.801c0-.09.06-.15.15-.15s.15.06.15.15v1.801c0 2.791-2.281 5.056-5.072 5.056Z"
   />
   <path
      fill="#fff"
      d="M178.083 117.237H23.649V30.852a5.7 5.7 0 0 1 5.702-5.703h143.03a5.7 5.7 0 0 1 5.702 5.703v86.385Z"
   />
   <path
      fill="#000"
      d="M178.084 117.387H23.65c-.09 0-.15-.06-.15-.15V30.852A5.86 5.86 0 0 1 29.352 25h143.03a5.86 5.86 0 0 1 5.852 5.852v86.385c0 .075-.075.15-.15.15Zm-154.284-.3h154.134V30.852a5.559 5.559 0 0 0-5.552-5.552H29.352a5.559 5.559 0 0 0-5.552 5.552v86.235Z"
   />
   <path
      fill="#000"
      d="M172.802 112.105h-18.141c-.09 0-.15-.06-.15-.15s.06-.15.15-.15h17.991V30.987a.43.43 0 0 0-.42-.42H29.487a.43.43 0 0 0-.42.42v80.818h25.704c.09 0 .15.06.15.15s-.06.15-.15.15H28.917c-.09 0-.15-.06-.15-.15V30.987c0-.39.33-.72.72-.72h142.745c.39 0 .72.33.72.72v80.968c0 .09-.06.15-.15.15Z"
   />
   <path
      fill="#fff"
      d="M124.216 138.874h-46.71a4.828 4.828 0 0 1-4.833-4.831v-10.084h56.375v10.069c0 2.671-2.161 4.846-4.832 4.846Z"
   />
   <path
      fill="#000"
      d="M124.216 139.025h-46.71a4.989 4.989 0 0 1-4.983-4.982V123.96c0-.09.06-.15.15-.15h56.375c.09 0 .15.06.15.15v10.068c0 2.761-2.236 4.997-4.982 4.997Zm-51.392-14.93v9.933c0 2.581 2.1 4.682 4.681 4.682h46.711a4.688 4.688 0 0 0 4.682-4.682v-9.933H72.823Z"
   />
   <path
      fill="#000"
      d="M126.947 127.605H74.774c-.09 0-.15-.06-.15-.15s.06-.15.15-.15h52.173c.09 0 .15.06.15.15s-.06.15-.15.15ZM81.963 47.224H67.648c-.09 0-.15-.06-.15-.15s.06-.15.15-.15h14.315c.09 0 .15.06.15.15a.15.15 0 0 1-.15.15ZM98.273 50.57H67.648c-.09 0-.15-.06-.15-.15s.06-.15.15-.15h30.625c.09 0 .15.06.15.15s-.06.15-.15.15ZM85.789 53.932H67.648c-.09 0-.15-.06-.15-.15s.06-.15.15-.15h18.14c.091 0 .151.06.151.15a.15.15 0 0 1-.15.15Z"
   />
   <path
      fill="#DFF3FE"
      d="M85.79 41.042H67.648v3.556H85.79v-3.556ZM63.806 41.042H45.74v18.066h18.066V41.042Z"
   />
   <path
      fill="#000"
      d="M42.067 53.376h-5.612c-.09 0-.15-.06-.15-.15v-5.612c0-.09.06-.15.15-.15h5.282c.09 0 .15.06.15.15s-.06.15-.15.15h-5.132v5.312h5.312V49.13c0-.09.06-.15.15-.15s.15.06.15.15v4.096a.15.15 0 0 1-.15.15Z"
   />
   <path
      fill="#5479F7"
      d="M39.26 52.416c-.044 0-.09-.03-.12-.06l-2.19-3.077a.161.161 0 0 1 .03-.21.161.161 0 0 1 .21.03l2.07 2.912 3.707-5.162c.045-.06.135-.09.21-.03.06.045.09.135.03.21l-3.826 5.327c-.03.03-.075.06-.12.06Z"
   />
   <path
      fill="#000"
      d="M90.788 93.23H67.636c-.09 0-.15-.061-.15-.151s.06-.15.15-.15h23.153c.09 0 .15.06.15.15s-.06.15-.15.15ZM94.795 96.59h-27.16c-.09 0-.15-.06-.15-.15s.06-.15.15-.15h27.16c.09 0 .15.06.15.15a.15.15 0 0 1-.15.15ZM90.788 99.937H67.636c-.09 0-.15-.06-.15-.15s.06-.15.15-.15h23.153c.09 0 .15.06.15.15s-.06.15-.15.15Z"
   />
   <path
      fill="#DFF3FE"
      d="M85.794 87.061H67.638v3.557h18.156V87.06ZM63.806 87.062H45.74v18.066h18.066V87.062Z"
   />
   <path
      fill="#E2EAFF"
      d="M42.067 99.396h-5.612c-.09 0-.15-.06-.15-.15v-5.612c0-.09.06-.15.15-.15h5.612c.045 0 .075.015.105.045s.045.06.045.105l-.015 5.612c.015.075-.045.15-.135.15Zm-5.462-.3h5.312l.015-5.312H36.62v5.312h-.015Z"
   />
   <path
      fill="#000"
      d="M90.788 70.842H67.636c-.09 0-.15-.06-.15-.15s.06-.15.15-.15h23.153c.09 0 .15.06.15.15a.15.15 0 0 1-.15.15ZM98.276 74.188h-30.64c-.09 0-.15-.06-.15-.15s.06-.15.15-.15h30.64c.09 0 .15.06.15.15s-.06.15-.15.15ZM85.792 77.55H67.635c-.09 0-.15-.06-.15-.15s.06-.15.15-.15h18.157c.09 0 .15.06.15.15a.15.15 0 0 1-.15.15Z"
   />
   <path
      fill="#DFF3FE"
      d="M85.794 64.66H67.638v3.556h18.156V64.66ZM63.806 64.66H45.74v18.067h18.066V64.66Z"
   />
   <path
      fill="#E2EAFF"
      d="M42.067 76.995h-5.612c-.09 0-.15-.06-.15-.15v-5.612c0-.09.06-.15.15-.15h5.612c.045 0 .075.015.105.045s.045.06.045.105l-.015 5.612c.015.09-.045.15-.135.15Zm-5.462-.3h5.312l.015-5.312H36.62v5.312h-.015Z"
   />
   <path fill="#7BBEE4" d="m41.388 83.16-2.28-9.092 7.967 4.771-3.721 1.216-1.966 3.106Z" />
   <path
      fill="#fff"
      d="M160.005 61.147h-10.999c-.555 0-1.006.45-1.006 1.006v3.016c0 .555.451 1.005 1.006 1.005h10.999c.555 0 1.005-.45 1.005-1.005v-3.016c0-.556-.45-1.006-1.005-1.006Z"
   />
   <path
      fill="#000"
      d="M160.004 66.325h-10.999a1.156 1.156 0 0 1-1.155-1.156v-3.016c0-.645.525-1.155 1.155-1.155h10.999c.645 0 1.155.525 1.155 1.155v3.016c0 .63-.51 1.156-1.155 1.156Zm-11.014-5.027c-.48 0-.855.39-.855.855v3.016c0 .48.39.856.855.856h10.999c.48 0 .855-.39.855-.856v-3.016c0-.48-.39-.855-.855-.855H148.99Z"
   />
   <path fill="#7BBEE4" d="M165.077 39.541h-39.524v4.577h39.524V39.54Z" />
   <path
      fill="#000"
      d="M165.059 55.686H125.94c-.09 0-.15-.06-.15-.15s.06-.15.15-.15h39.119c.09 0 .15.06.15.15a.15.15 0 0 1-.15.15ZM138.515 51.56H125.94c-.09 0-.15-.06-.15-.15s.06-.15.15-.15h12.575c.09 0 .15.06.15.15a.15.15 0 0 1-.15.15ZM154.044 51.56H141.92c-.09 0-.15-.06-.15-.15s.06-.15.15-.15h12.124c.09 0 .15.06.15.15a.15.15 0 0 1-.15.15Z"
   />
   <path
      fill="#fff"
      d="M159.886 87.811h-7.652a1.037 1.037 0 0 1-1.036-1.035v-7.653c0-.57.465-1.035 1.036-1.035h7.652c.57 0 1.036.465 1.036 1.035v7.653c0 .57-.466 1.035-1.036 1.035Z"
   />
   <path
      fill="#000"
      d="M159.887 87.962h-7.653a1.188 1.188 0 0 1-1.185-1.185v-7.653c0-.645.525-1.185 1.185-1.185h7.653c.645 0 1.185.525 1.185 1.185v7.653c0 .66-.54 1.185-1.185 1.185Zm-7.653-9.708c-.48 0-.885.39-.885.885v7.653c0 .48.39.885.885.885h7.653c.48 0 .885-.39.885-.885v-7.653c0-.48-.39-.885-.885-.885h-7.653Z"
   />
   <g clip-path="url(#a)">
      <path
         fill="#000"
         d="M158.153 81.448a.188.188 0 0 1-.188.188h-.753a1.404 1.404 0 0 1-1.403 1.5h-.359l1.704 1.548a.197.197 0 0 1 .063.13.201.201 0 0 1-.011.074.177.177 0 0 1-.038.063.183.183 0 0 1-.131.061.186.186 0 0 1-.135-.05l-2.063-1.875a.19.19 0 0 1-.049-.207.189.189 0 0 1 .175-.12h.844a1.033 1.033 0 0 0 1.027-1.124h-1.871a.187.187 0 0 1-.132-.32.187.187 0 0 1 .132-.055h1.762a1.029 1.029 0 0 0-.918-.563h-.844a.187.187 0 0 1-.132-.32.187.187 0 0 1 .132-.055h3a.188.188 0 1 1 0 .375h-1.201c.167.155.294.348.371.563h.83a.188.188 0 0 1 .188.187Z"
      />
   </g>
   <g clip-path="url(#b)">
      <path
         fill="#000"
         d="M164.528 62.823a.123.123 0 0 1-.037.088.123.123 0 0 1-.088.037h-.503a.936.936 0 0 1-.935 1h-.239l1.136 1.033a.147.147 0 0 1 .03.039.13.13 0 0 1 .005.096.12.12 0 0 1-.026.042.123.123 0 0 1-.177.008l-1.375-1.25a.125.125 0 0 1 .084-.218h.562a.687.687 0 0 0 .685-.75h-1.247a.127.127 0 0 1-.089-.037.126.126 0 0 1 0-.176.128.128 0 0 1 .089-.037h1.174a.683.683 0 0 0-.612-.375h-.562a.127.127 0 0 1-.089-.037.126.126 0 0 1 0-.176.128.128 0 0 1 .089-.037h2c.033 0 .065.013.088.037a.123.123 0 0 1 0 .176.123.123 0 0 1-.088.037h-.801a.946.946 0 0 1 .247.375h.554c.033 0 .065.013.088.037a.123.123 0 0 1 .037.088Z"
      />
   </g>
   <path
      fill="#fff"
      d="M143.946 87.813h-12.724c-.63 0-1.125-.51-1.125-1.126v-7.442c0-.63.51-1.126 1.125-1.126h12.724c.631 0 1.126.51 1.126 1.126v7.442c0 .616-.495 1.126-1.126 1.126Z"
   />
   <path
      fill="#000"
      d="M143.949 87.963h-12.725c-.705 0-1.275-.57-1.275-1.275v-7.442c0-.706.57-1.276 1.275-1.276h12.725c.705 0 1.275.57 1.275 1.276v7.442c0 .705-.57 1.275-1.275 1.275Zm-12.725-9.708a.973.973 0 0 0-.975.976v7.442c0 .54.435.975.975.975h12.725c.54 0 .975-.435.975-.975v-7.442a.973.973 0 0 0-.975-.976h-12.725Z"
   />
   <path
      fill="#fff"
      d="M143.215 81.211h-2.026c-.345 0-.63.3-.63.675v1.066c0 .375.285.675.63.675h2.026c.345 0 .63-.3.63-.675v-1.066c0-.375-.285-.675-.63-.675Z"
   />
   <path
      fill="#000"
      d="M143.213 83.778h-2.026c-.435 0-.78-.376-.78-.826v-1.065c0-.465.345-.825.78-.825h2.026c.435 0 .78.375.78.825v1.065c0 .466-.36.826-.78.826Zm-2.026-2.416c-.27 0-.48.24-.48.525v1.065c0 .3.21.526.48.526h2.026c.27 0 .48-.24.48-.526v-1.065c0-.3-.21-.525-.48-.525h-2.026Z"
   />
   <path
      fill="#E2EAFF"
      d="M133.909 85.052h-2.911v.96h2.911v-.96ZM137.328 85.052h-2.911v.96h2.911v-.96ZM140.751 85.052h-2.911v.96h2.911v-.96ZM144.157 85.052h-2.911v.96h2.911v-.96Z"
   />
   <path fill="#fff" d="M137.342 76.107a2.55 2.55 0 1 0 0-5.101 2.55 2.55 0 0 0 0 5.101Z" />
   <path
      fill="#000"
      d="M137.343 76.258a2.709 2.709 0 0 1-2.701-2.7 2.709 2.709 0 0 1 2.701-2.702c1.485 0 2.7 1.216 2.7 2.701 0 1.486-1.215 2.701-2.7 2.701Zm0-5.087a2.408 2.408 0 0 0-2.401 2.401c0 1.32 1.08 2.4 2.401 2.4 1.32 0 2.4-1.08 2.4-2.4 0-1.335-1.08-2.4-2.4-2.4Z"
   />
   <path fill="#fff" d="M156.042 76.107a2.55 2.55 0 1 0-.001-5.102 2.55 2.55 0 0 0 .001 5.102Z" />
   <path
      fill="#000"
      d="M156.043 76.257a2.709 2.709 0 0 1-2.701-2.7c0-1.486 1.215-2.701 2.701-2.701a2.71 2.71 0 0 1 2.701 2.7 2.71 2.71 0 0 1-2.701 2.701Zm0-5.086a2.408 2.408 0 0 0-2.401 2.4c0 1.32 1.08 2.401 2.401 2.401 1.32 0 2.401-1.08 2.401-2.4 0-1.336-1.081-2.401-2.401-2.401Z"
   />
   <path
      fill="#7BBEE4"
      d="M159.524 93.636h-27.79c-.765 0-1.38.615-1.38 1.38v3.496c0 .766.615 1.38 1.38 1.38h27.79c.765 0 1.38-.614 1.38-1.38v-3.496c.015-.765-.615-1.38-1.38-1.38Z"
   />
   <path fill="#DFF3FE" d="M145.075 61.373h-19.132v4.577h19.132v-4.577Z" />
   <path fill="#fff" d="M34 192H12v75h22v-75Z" />
   <path
      fill="#000"
      d="M145.845 271H12.156c-.093 0-.155-.063-.155-.156v-78.688c0-.094.062-.156.155-.156h22.995c.093 0 .155.062.155.156s-.062.157-.155.157H12.31v78.374h133.534c.093 0 .155.063.155.157 0 .078-.077.156-.155.156Z"
   />
   <path
      fill="#fff"
      d="M31.616 173.749c.345-.375.69-.78.84-1.275.15-.495.03-1.094-.39-1.379-.3-.21-.705-.21-.99-.435-.39-.3-.45-.9-.255-1.365.195-.465.555-.825.885-1.185.914-.975 1.724-2.114 2.084-3.404.36-1.29.24-2.775-.57-3.854-.795-1.08-2.34-1.635-3.569-1.095-.915.405-1.515 1.275-2.055 2.099-1.38 2.085-2.76 4.2-3.809 6.464-1.05 2.265-1.755 4.754-1.68 7.259.03.915.15 1.844.6 2.639.435.795 1.23 1.455 2.13 1.53 1.47.135 2.024-1.41 2.97-2.235a49.939 49.939 0 0 0 3.809-3.764Z"
   />
   <path
      fill="#000"
      d="M25 179.898c-.06 0-.12 0-.194-.015-.885-.075-1.755-.69-2.25-1.605-.39-.704-.585-1.574-.615-2.714-.06-2.28.51-4.739 1.695-7.319 1.05-2.294 2.46-4.424 3.824-6.493.51-.765 1.14-1.725 2.115-2.16 1.26-.54 2.864-.06 3.749 1.14.78 1.05.99 2.534.585 3.989-.33 1.155-1.02 2.295-2.13 3.464l-.105.105c-.3.315-.6.645-.764 1.035-.15.39-.136.915.21 1.185.134.105.3.15.464.21.18.06.36.12.51.225.525.345.6 1.05.45 1.56-.15.509-.495.929-.87 1.334a43.468 43.468 0 0 1-3.839 3.78c-.27.24-.495.524-.75.839-.51.72-1.095 1.44-2.084 1.44Zm5.67-20.216c-.33 0-.66.06-.96.195-.9.39-1.5 1.305-1.995 2.04-1.35 2.054-2.76 4.184-3.794 6.448-1.17 2.535-1.725 4.949-1.665 7.184.03 1.095.21 1.905.57 2.579.45.825 1.23 1.38 2.01 1.455.945.09 1.5-.6 2.07-1.32.24-.315.494-.629.78-.884a47.281 47.281 0 0 0 3.808-3.75c.345-.39.675-.764.81-1.214.12-.42.045-.96-.33-1.215-.12-.09-.285-.135-.435-.18-.195-.06-.39-.12-.555-.255-.464-.36-.51-1.035-.315-1.53.18-.435.51-.795.825-1.125l.105-.105c1.065-1.139 1.74-2.234 2.055-3.344.39-1.365.18-2.759-.54-3.734-.6-.78-1.545-1.245-2.444-1.245Z"
   />
   <path
      fill="#fff"
      d="M15.538 174.949c-1.185-1.815-1.29-4.484.27-5.984.644-.615 1.59-1.185 1.484-2.07-.045-.345-.255-.645-.48-.899-.81-.93-1.904-1.575-2.79-2.43-.899-.855-1.619-2.085-1.334-3.284.24-1.035 1.185-1.815 2.235-2.04 1.034-.225 2.144.015 3.104.465 2.895 1.35 4.71 4.424 5.309 7.558.6 3.135.195 6.374-.285 9.539-.105.704-.225 1.439-.645 2.039-1.65 2.4-5.864-1.35-6.868-2.894Z"
   />
   <path
      fill="#000"
      d="M20.923 178.773h-.03c-1.98-.03-4.65-2.49-5.474-3.75-1.155-1.769-1.365-4.574.3-6.163l.42-.375c.54-.465 1.094-.945 1.02-1.56-.046-.315-.255-.615-.45-.825-.465-.525-1.035-.975-1.59-1.41a15.183 15.183 0 0 1-1.2-1.004c-.54-.51-1.74-1.86-1.38-3.42.24-1.034 1.17-1.904 2.34-2.159 1.215-.27 2.414.105 3.194.48 2.685 1.259 4.71 4.124 5.4 7.663.614 3.149.21 6.329-.286 9.598-.105.645-.225 1.455-.66 2.1-.39.54-.93.825-1.604.825Zm-5.264-3.915c.825 1.26 3.434 3.6 5.234 3.615.6.015 1.05-.24 1.394-.72.405-.585.51-1.32.615-1.98.495-3.239.885-6.389.285-9.493-.675-3.449-2.624-6.239-5.234-7.453-.75-.345-1.874-.705-3.014-.45-1.065.24-1.905 1.004-2.115 1.934-.315 1.41.795 2.67 1.29 3.15.375.36.78.675 1.185.989.57.435 1.14.9 1.62 1.455.21.24.464.585.51.975.09.78-.555 1.335-1.125 1.83-.15.12-.285.24-.405.36-1.53 1.499-1.32 4.124-.24 5.788Z"
   />
   <path
      fill="#000"
      d="M19.931 176.748a.162.162 0 0 1-.105-.045c-1.59-1.455-1.574-3.915-1.41-5.249.076-.6.18-1.2.286-1.785.21-1.2.435-2.429.33-3.644-.15-1.755-1.23-3.644-3.015-3.869a.176.176 0 0 1-.135-.165.176.176 0 0 1 .165-.135c1.935.255 3.105 2.279 3.27 4.139.105 1.26-.12 2.504-.33 3.719-.105.57-.21 1.17-.27 1.755-.15 1.275-.18 3.629 1.32 4.994.06.06.06.15.015.21a.124.124 0 0 1-.12.075Z"
   />
   <path
      fill="#fff"
      d="M20.743 170.014c.45-1.049 1.14-2.054 1.14-3.194 0-1.65-1.395-2.909-2.384-4.229-1.77-2.385-2.34-5.714-1.11-8.413 1.23-2.7 4.364-4.515 7.258-3.87 1.05.225 2.085.81 2.58 1.755.57 1.095.315 2.429-.045 3.614-.375 1.185-.855 2.385-.705 3.614.255 2.175 2.385 3.735 2.834 5.879.465 2.235-.99 4.379-2.519 6.074-.855.96-1.755 1.89-2.46 2.969-.794 1.245-.9 2.355-1.17 3.75-.3 1.484-1.289 1.664-2.264.585-.93-1.005-1.44-2.445-1.68-3.78-.284-1.589-.12-3.269.525-4.754Z"
   />
   <path
      fill="#000"
      d="M23.082 179.373c-.42 0-.87-.255-1.305-.735-1.124-1.23-1.56-2.94-1.71-3.854-.284-1.665-.09-3.375.556-4.844.12-.255.24-.525.375-.78.374-.75.764-1.545.764-2.37 0-1.245-.854-2.279-1.68-3.284-.224-.285-.464-.57-.674-.855-1.89-2.55-2.34-5.909-1.125-8.563 1.29-2.85 4.56-4.589 7.424-3.959 1.244.269 2.22.944 2.684 1.829.63 1.2.315 2.625-.03 3.719-.06.165-.105.345-.165.51-.33.99-.66 2.025-.54 3.045.135 1.109.75 2.039 1.41 3.014.585.885 1.2 1.8 1.425 2.849.51 2.445-1.215 4.71-2.55 6.209-.15.165-.285.33-.435.48-.705.78-1.425 1.59-2.01 2.475-.66 1.019-.824 1.949-1.034 3.029-.045.21-.075.435-.12.66-.15.75-.495 1.23-.96 1.365-.12.06-.21.06-.3.06Zm-2.19-9.299c-.614 1.41-.794 3.075-.524 4.68.15.869.57 2.519 1.634 3.704.45.495.915.705 1.275.615.345-.105.615-.495.75-1.125.045-.225.09-.45.12-.66.21-1.11.39-2.07 1.065-3.134.585-.915 1.32-1.725 2.04-2.505.15-.165.284-.33.434-.48 1.29-1.454 2.955-3.644 2.475-5.954-.21-.989-.795-1.889-1.38-2.744-.645-.975-1.32-1.98-1.455-3.149-.135-1.08.21-2.145.555-3.165.06-.165.105-.345.165-.51.33-1.049.63-2.399.06-3.494-.42-.81-1.335-1.425-2.474-1.68-2.745-.599-5.85 1.065-7.094 3.795-1.155 2.564-.735 5.804 1.095 8.263.21.285.45.57.675.84.855 1.05 1.74 2.129 1.74 3.479 0 .9-.406 1.71-.795 2.49-.12.21-.255.48-.36.734Z"
   />
   <path
      fill="#000"
      d="M23.128 177.978a.17.17 0 0 1-.12-.045c-1.185-1.364-1.065-3.389-.555-4.844.36-1.02.915-1.964 1.44-2.864.284-.495.584-1.005.854-1.53.915-1.784 1.17-3.344.75-4.649-.27-.855-.825-1.545-1.395-2.294-.375-.48-.764-.975-1.064-1.515-1.155-2.055-.975-4.814.42-6.719a.161.161 0 0 1 .21-.03c.06.045.075.15.03.21-1.335 1.8-1.5 4.424-.405 6.389.285.525.674 1.005 1.034 1.485.57.734 1.155 1.484 1.44 2.384.45 1.38.195 3.015-.765 4.874-.27.525-.57 1.035-.87 1.545-.524.9-1.064 1.829-1.424 2.819-.48 1.365-.6 3.285.495 4.544.06.06.045.15-.015.21 0 .015-.03.03-.06.03Z"
   />
   <path fill="#DFF3FE" d="M32.771 177.483H14.52l1.23 13.963h15.777l1.244-13.963Z" />
   <path fill="#fff" d="m112.497 210.209-19.849-.42 3.064-20.205h14.477l2.308 20.625Z" />
   <path
      fill="#000"
      d="m112.497 210.419-19.849-.441c-.063 0-.126-.021-.147-.084-.042-.042-.063-.105-.042-.168l3.064-20.205c.02-.105.105-.189.21-.189h14.477c.105 0 .189.084.21.189l2.308 20.646a.238.238 0 0 1-.063.168c-.063.063-.105.084-.168.084ZM92.9 209.58l19.366.419L110 189.773H95.88L92.9 209.58Z"
   />
   <path
      fill="#000"
      d="M119.047 184.842c0-1.175-.524-2.203-1.321-2.833a6.35 6.35 0 0 0 1.154-3.651c0-3.294-2.434-5.98-5.435-5.98-.189 0-.377.021-.566.042-.567-2.832-2.875-4.93-5.602-4.93a5.374 5.374 0 0 0-3.483 1.301c-.798-1.658-2.371-2.791-4.176-2.791-2.287 0-4.196 1.804-4.637 4.175a6.128 6.128 0 0 0-1.867-.293c-3.588 0-6.484 3.189-6.484 7.112a7.6 7.6 0 0 0 1.448 4.491 5.482 5.482 0 0 0-.273 1.657c0 1.805.903 3.378 2.224 4.218a4.654 4.654 0 0 0-.65 2.37c0 2.392 1.762 4.323 3.924 4.323h.168a3.671 3.671 0 0 0-.105.839c0 1.909 1.405 3.462 3.147 3.462.65 0 1.259-.231 1.762-.608.63.881 1.616 1.468 2.728 1.468.944 0 1.783-.419 2.413-1.091.587.504 1.301.798 2.098.798 1.07 0 2.014-.546 2.644-1.385a2.819 2.819 0 0 0 1.72.608c1.637 0 2.98-1.468 2.98-3.252v-.21c2.035-.189 3.651-2.056 3.651-4.343 0-.713-.168-1.385-.441-1.972 1.658-.126 2.979-1.658 2.979-3.525Z"
   />
   <path
      fill="#7BBEE4"
      d="M66.697 206.474c19.912-4.385 53.609-4.343 71.632.566 22.073 6.043 65.988 33.11 54.91 51.154-10.344 16.849-47.147-5.413-47.147-5.413v13.47a4.647 4.647 0 0 1-4.658 4.658H60.99a4.647 4.647 0 0 1-4.658-4.658v-14.897s-36.823 24.276-48.49 8.078c-14.77-20.52 43.538-49.601 58.855-52.958Z"
   />
   <path
      fill="#000"
      d="M146.094 252.991c-.105 0-.21-.084-.21-.189-1.238-15.107-6.127-30.885-6.169-31.053-.042-.105.021-.231.147-.273.105-.042.231.021.273.147.042.168 4.951 15.988 6.189 31.137-.021.126-.105.231-.23.231ZM56.458 251.354c-.02 0-.02 0 0 0-.125 0-.21-.105-.21-.231 1.239-15.149 6.127-30.99 6.19-31.137a.24.24 0 0 1 .273-.147.24.24 0 0 1 .147.273c-.042.168-4.93 15.946-6.169 31.053-.042.105-.126.189-.23.189Z"
   />
   <defs>
      <clipPath id="a">
         <path fill="#fff" d="M153.278 79.573h6v6h-6z" />
      </clipPath>
      <clipPath id="b">
         <path fill="#fff" d="M161.278 61.573h4v4h-4z" />
      </clipPath>
   </defs>
</svg>
