<svg xmlns="http://www.w3.org/2000/svg" fill="none" viewBox="0 0 200 272">
   <rect width="200" height="272" fill="#F5FBFF" rx="8" />
   <path fill="#fff" d="M172.612 229.193h-47.428v40.369h47.428v-40.369Z" />
   <path
      fill="#000"
      d="M172.612 269.746h-47.428c-.11 0-.184-.073-.184-.184v-40.369c0-.11.074-.184.184-.184h47.428c.11 0 .184.074.184.184v40.369c0 .111-.074.184-.184.184Zm-47.244-.368h47.06v-40.001h-47.06v40.001Z"
   />
   <path fill="#fff" d="M188.921 229.211h-21.637v40.369h21.637v-40.369Z" />
   <path
      fill="#000"
      d="M188.921 269.764h-21.637c-.11 0-.184-.074-.184-.184v-40.369c0-.11.074-.184.184-.184h21.637c.11 0 .184.074.184.184v40.369c0 .11-.074.184-.184.184Zm-21.453-.368h21.269v-40.001h-21.269v40.001Z"
   />
   <path
      fill="#DFF3FE"
      d="m143.495 229.468-.019 22.942h6.067l-.019-22.96-6.029.018Zm32.832-.018v22.942h4.651v-22.961l-4.651.019Z"
   />
   <path fill="#fff" d="M141.471 202.04h23.604v10.276h-23.659c.018 0 .055-10.423.055-10.276Z" />
   <path
      fill="#000"
      d="M165.075 212.5h-23.659a.17.17 0 0 1-.129-.055.17.17 0 0 1-.055-.129l.037-10.166v-.11c.018-.092.055-.184.184-.184h23.622c.11 0 .184.074.184.184v10.276c0 .11-.074.184-.184.184Zm-23.457-.368h23.273v-9.908h-23.254c0 1.25-.019 8.64-.019 9.908Z"
   />
   <path fill="#fff" d="M141.471 202.04h23.604v10.276h-23.659c.018 0 .055-10.423.055-10.276Z" />
   <path
      fill="#000"
      d="M165.075 212.5h-23.659a.17.17 0 0 1-.129-.055.17.17 0 0 1-.055-.129l.037-10.166v-.11c.018-.092.055-.184.184-.184h23.622c.11 0 .184.074.184.184v10.276c0 .11-.074.184-.184.184Zm-23.457-.368h23.273v-9.908h-23.254c0 1.25-.019 8.64-.019 9.908Z"
   />
   <path fill="#fff" d="M150.94 202.04h20.589v10.276h-20.626l.037-10.276Z" />
   <path
      fill="#000"
      d="M171.529 212.5h-20.626a.17.17 0 0 1-.129-.055.167.167 0 0 1-.055-.129l.037-10.166v-.11c.018-.092.055-.184.184-.184h20.589c.11 0 .183.074.183.184v10.276c0 .11-.091.184-.183.184Zm-20.442-.368h20.258v-9.908h-20.222c-.018 1.25-.036 8.64-.036 9.908Z"
   />
   <path
      fill="#000"
      d="M146.161 206.838a.166.166 0 0 1-.129-.055l-4.633-4.578a.178.178 0 0 1 0-.257.18.18 0 0 1 .258 0l4.504 4.449 4.632-4.486c.055-.055.129-.073.202-.036.074.036.111.092.111.165l.036 3.511h20.369c.11 0 .184.074.184.184s-.074.184-.184.184h-20.552a.185.185 0 0 1-.184-.184l-.037-3.254-4.467 4.32c-.018.019-.055.037-.11.037Z"
   />
   <path
      fill="#000"
      d="M141.436 212.5c-.037 0-.073 0-.092-.037-.092-.055-.11-.165-.055-.257l3.989-6.379c.055-.092.166-.11.258-.055.091.055.11.165.055.257l-3.989 6.379c-.056.074-.111.092-.166.092Zm9.468 0c-.056 0-.129-.037-.147-.092l-3.971-6.379a.197.197 0 0 1 .055-.257.197.197 0 0 1 .257.055l3.971 6.379a.198.198 0 0 1-.055.257c-.055.037-.092.037-.11.037Z"
   />
   <path fill="#fff" d="M130.61 212.317h38.715v16.857h-38.789c.019.019.074-17.096.074-16.857Z" />
   <path
      fill="#000"
      d="M169.343 229.376h-38.788a.167.167 0 0 1-.129-.055.164.164 0 0 1-.055-.128l.055-16.141c0-.331 0-.533.018-.662v-.055h.019c.018-.184.055-.184.165-.184h38.733c.111 0 .184.074.184.184v16.858c-.018.092-.11.183-.202.183Zm-38.604-.367h38.42v-16.49h-38.365c0 1.691-.055 14.762-.055 16.49Z"
   />
   <path fill="#fff" d="M130.61 212.317h38.715v16.857h-38.789c.019.019.074-17.096.074-16.857Z" />
   <path
      fill="#000"
      d="M169.343 229.376h-38.788a.167.167 0 0 1-.129-.055.164.164 0 0 1-.055-.128l.055-16.141c0-.331 0-.533.018-.662v-.055h.019c.018-.184.055-.184.165-.184h38.733c.111 0 .184.074.184.184v16.858c-.018.092-.11.183-.202.183Zm-38.604-.367h38.42v-16.49h-38.365c0 1.691-.055 14.762-.055 16.49Z"
   />
   <path fill="#fff" d="M146.125 212.317h33.77v16.857H146.07l.055-16.857Z" />
   <path
      fill="#000"
      d="M179.895 229.376H146.07a.167.167 0 0 1-.129-.055.164.164 0 0 1-.055-.128l.055-16.141c0-.331 0-.533.019-.662v-.055h.018c.018-.184.055-.184.165-.184h33.77c.11 0 .184.074.184.184v16.858c-.019.092-.11.183-.202.183Zm-33.641-.367h33.457v-16.49h-33.402c0 1.691-.055 14.762-.055 16.49Z"
   />
   <path
      fill="#DFF3FE"
      d="m161.218 212.629-.019 9.394h5.662v-9.394h-5.643Zm-24.818 0-.018 9.375h3.769v-9.393l-3.751.018Z"
   />
   <path
      fill="#fff"
      d="M169.417 132.339H27.629a3.037 3.037 0 0 1-3.033-3.034V28.033A3.036 3.036 0 0 1 27.629 25h141.788a3.037 3.037 0 0 1 3.034 3.033v101.254a3.041 3.041 0 0 1-3.034 3.052Z"
   />
   <path
      fill="#1a856c"
      d="M104.595 53.287a.985.985 0 0 1-.986.986.985.985 0 0 1-.985-.986.985.985 0 0 1 .985-.986.985.985 0 0 1 .986.986zm0 13.8a.985.985 0 0 1-.986.986.985.985 0 0 1-.985-.986.985.985 0 0 1 .985-.986.985.985 0 0 1 .986.986zm2.76-16.56a.985.985 0 0 1-.986.986.985.985 0 0 1-.985-.986.985.985 0 0 1 .985-.986.985.985 0 0 1 .986.986zm0 2.76a.985.985 0 0 1-.986.986.985.985 0 0 1-.985-.986.985.985 0 0 1 .985-.986.985.985 0 0 1 .986.986zm0 11.04a.985.985 0 0 1-.986.986.985.985 0 0 1-.985-.986.985.985 0 0 1 .985-.986.985.985 0 0 1 .986.986zm0 2.76a.985.985 0 0 1-.986.986.985.985 0 0 1-.985-.986.985.985 0 0 1 .985-.986.985.985 0 0 1 .986.986zm0 2.76a.985.985 0 0 1-.986.986.985.985 0 0 1-.985-.986.985.985 0 0 1 .985-.986.985.985 0 0 1 .986.986zm2.76-22.08a.985.985 0 0 1-.986.986.985.985 0 0 1-.985-.986.985.985 0 0 1 .985-.986.985.985 0 0 1 .986.986zm0 2.76a.985.985 0 0 1-.986.986.985.985 0 0 1-.985-.986.985.985 0 0 1 .985-.986.985.985 0 0 1 .986.986zm0 2.76a.985.985 0 0 1-.986.986.985.985 0 0 1-.985-.986.985.985 0 0 1 .985-.986.985.985 0 0 1 .986.986zm0 2.76a.985.985 0 0 1-.986.986.985.985 0 0 1-.985-.986.985.985 0 0 1 .985-.986.985.985 0 0 1 .986.986zm0 5.52a.985.985 0 0 1-.986.986.985.985 0 0 1-.985-.986.985.985 0 0 1 .985-.986.985.985 0 0 1 .986.986zm0 2.76a.985.985 0 0 1-.986.986.985.985 0 0 1-.985-.986.985.985 0 0 1 .985-.986.985.985 0 0 1 .986.986zm0 2.76a.985.985 0 0 1-.986.986.985.985 0 0 1-.985-.986.985.985 0 0 1 .985-.986.985.985 0 0 1 .986.986zm0 2.76a.985.985 0 0 1-.986.986.985.985 0 0 1-.985-.986.985.985 0 0 1 .985-.986.985.985 0 0 1 .986.986zm2.76-22.08a.985.985 0 0 1-.986.986.985.985 0 0 1-.985-.986.985.985 0 0 1 .985-.986.985.985 0 0 1 .986.986zm0 2.76a.985.985 0 0 1-.986.986.985.985 0 0 1-.985-.986.985.985 0 0 1 .985-.986.985.985 0 0 1 .986.986zm0 2.76a.985.985 0 0 1-.986.986.985.985 0 0 1-.985-.986.985.985 0 0 1 .985-.986.985.985 0 0 1 .986.986zm0 2.76a.985.985 0 0 1-.986.986.985.985 0 0 1-.985-.986.985.985 0 0 1 .985-.986.985.985 0 0 1 .986.986zm0 2.76a.985.985 0 0 1-.986.986.985.985 0 0 1-.985-.986.985.985 0 0 1 .985-.986.985.985 0 0 1 .986.986zm0 2.76a.985.985 0 0 1-.986.986.985.985 0 0 1-.985-.986.985.985 0 0 1 .985-.986.985.985 0 0 1 .986.986zm0 2.76a.985.985 0 0 1-.986.986.985.985 0 0 1-.985-.986.985.985 0 0 1 .985-.986.985.985 0 0 1 .986.986zm0 2.76a.985.985 0 0 1-.986.986.985.985 0 0 1-.985-.986.985.985 0 0 1 .985-.986.985.985 0 0 1 .986.986zm0 2.76a.985.985 0 0 1-.986.986.985.985 0 0 1-.985-.986.985.985 0 0 1 .985-.986.985.985 0 0 1 .986.986zm0 2.76a.985.985 0 0 1-.986.986.985.985 0 0 1-.985-.986.985.985 0 0 1 .985-.986.985.985 0 0 1 .986.986zm0 2.76a.985.985 0 0 1-.986.986.985.985 0 0 1-.985-.987.985.985 0 0 1 .985-.985.985.985 0 0 1 .986.985zm0 2.76a.985.985 0 0 1-.986.986.985.985 0 0 1-.985-.987.985.985 0 0 1 .985-.985.985.985 0 0 1 .986.985zm0 2.76a.985.985 0 0 1-.986.985.985.985 0 0 1-.985-.986.985.985 0 0 1 .985-.985.985.985 0 0 1 .986.985zm0 2.76a.985.985 0 0 1-.986.985.985.985 0 0 1-.985-.986.985.985 0 0 1 .985-.985.985.985 0 0 1 .986.985zm2.76-35.88a.985.985 0 0 1-.986.986.985.985 0 0 1-.985-.986.985.985 0 0 1 .985-.986.985.985 0 0 1 .986.986zm0 2.76a.985.985 0 0 1-.986.986.985.985 0 0 1-.985-.986.985.985 0 0 1 .985-.986.985.985 0 0 1 .986.986zm0 2.76a.985.985 0 0 1-.986.986.985.985 0 0 1-.985-.986.985.985 0 0 1 .985-.986.985.985 0 0 1 .986.986zm0 2.76a.985.985 0 0 1-.986.986.985.985 0 0 1-.985-.986.985.985 0 0 1 .985-.986.985.985 0 0 1 .986.986zm0 2.76a.985.985 0 0 1-.986.986.985.985 0 0 1-.985-.986.985.985 0 0 1 .985-.986.985.985 0 0 1 .986.986zm0 2.76a.985.985 0 0 1-.986.986.985.985 0 0 1-.985-.986.985.985 0 0 1 .985-.986.985.985 0 0 1 .986.986zm0 2.76a.985.985 0 0 1-.986.986.985.985 0 0 1-.985-.986.985.985 0 0 1 .985-.986.985.985 0 0 1 .986.986zm0 2.76a.985.985 0 0 1-.986.986.985.985 0 0 1-.985-.986.985.985 0 0 1 .985-.986.985.985 0 0 1 .986.986zm0 2.76a.985.985 0 0 1-.986.986.985.985 0 0 1-.985-.986.985.985 0 0 1 .985-.986.985.985 0 0 1 .986.986zm0 2.76a.985.985 0 0 1-.986.986.985.985 0 0 1-.985-.986.985.985 0 0 1 .985-.986.985.985 0 0 1 .986.986zm0 2.76a.985.985 0 0 1-.986.986.985.985 0 0 1-.985-.987.985.985 0 0 1 .985-.985.985.985 0 0 1 .986.985zm0 2.76a.985.985 0 0 1-.986.986.985.985 0 0 1-.985-.987.985.985 0 0 1 .985-.985.985.985 0 0 1 .986.985zm0 2.76a.985.985 0 0 1-.986.985.985.985 0 0 1-.985-.986.985.985 0 0 1 .985-.985.985.985 0 0 1 .986.985zm0 2.76a.985.985 0 0 1-.986.985.985.985 0 0 1-.985-.986.985.985 0 0 1 .985-.985.985.985 0 0 1 .986.985zm0 2.76a.985.985 0 0 1-.986.985.985.985 0 0 1-.985-.986.985.985 0 0 1 .985-.985.985.985 0 0 1 .986.985zm0 2.76a.985.985 0 0 1-.986.985.985.985 0 0 1-.985-.986.985.985 0 0 1 .985-.986.985.985 0 0 1 .986.986zm0 2.76a.985.985 0 0 1-.986.985.985.985 0 0 1-.985-.986.985.985 0 0 1 .985-.985.985.985 0 0 1 .986.985zm0 2.76a.985.985 0 0 1-.986.985.985.985 0 0 1-.985-.986.985.985 0 0 1 .985-.986.985.985 0 0 1 .986.986zm0 2.76a.985.985 0 0 1-.986.985.985.985 0 0 1-.985-.986.985.985 0 0 1 .985-.986.985.985 0 0 1 .986.986zm0 2.76a.985.985 0 0 1-.986.985.985.985 0 0 1-.985-.986.985.985 0 0 1 .985-.986.985.985 0 0 1 .986.986zm0 2.76a.985.985 0 0 1-.986.985.985.985 0 0 1-.985-.986.985.985 0 0 1 .985-.986.985.985 0 0 1 .986.986zm2.76-52.44a.985.985 0 0 1-.986.986.985.985 0 0 1-.985-.986.985.985 0 0 1 .985-.986.985.985 0 0 1 .986.986zm0 2.76a.985.985 0 0 1-.986.986.985.985 0 0 1-.985-.986.985.985 0 0 1 .985-.986.985.985 0 0 1 .986.986zm0 2.76a.985.985 0 0 1-.986.986.985.985 0 0 1-.985-.986.985.985 0 0 1 .985-.986.985.985 0 0 1 .986.986zm0 2.76a.985.985 0 0 1-.986.986.985.985 0 0 1-.985-.986.985.985 0 0 1 .985-.986.985.985 0 0 1 .986.986zm0 2.76a.985.985 0 0 1-.986.986.985.985 0 0 1-.985-.986.985.985 0 0 1 .985-.986.985.985 0 0 1 .986.986zm0 2.76a.985.985 0 0 1-.986.986.985.985 0 0 1-.985-.986.985.985 0 0 1 .985-.986.985.985 0 0 1 .986.986zm0 2.76a.985.985 0 0 1-.986.986.985.985 0 0 1-.985-.986.985.985 0 0 1 .985-.986.985.985 0 0 1 .986.986zm0 2.76a.985.985 0 0 1-.986.986.985.985 0 0 1-.985-.986.985.985 0 0 1 .985-.986.985.985 0 0 1 .986.986zm0 2.76a.985.985 0 0 1-.986.986.985.985 0 0 1-.985-.986.985.985 0 0 1 .985-.986.985.985 0 0 1 .986.986zm0 2.76a.985.985 0 0 1-.986.986.985.985 0 0 1-.985-.987.985.985 0 0 1 .985-.985.985.985 0 0 1 .986.985zm0 2.76a.985.985 0 0 1-.986.986.985.985 0 0 1-.985-.987.985.985 0 0 1 .985-.985.985.985 0 0 1 .986.985zm0 2.76a.985.985 0 0 1-.986.985.985.985 0 0 1-.985-.986.985.985 0 0 1 .985-.985.985.985 0 0 1 .986.985zm0 2.76a.985.985 0 0 1-.986.985.985.985 0 0 1-.985-.986.985.985 0 0 1 .985-.985.985.985 0 0 1 .986.985zm0 2.76a.985.985 0 0 1-.986.985.985.985 0 0 1-.985-.986.985.985 0 0 1 .985-.985.985.985 0 0 1 .986.985zm0 2.76a.985.985 0 0 1-.986.985.985.985 0 0 1-.985-.986.985.985 0 0 1 .985-.986.985.985 0 0 1 .986.986zm0 2.76a.985.985 0 0 1-.986.985.985.985 0 0 1-.985-.986.985.985 0 0 1 .985-.985.985.985 0 0 1 .986.985zm0 2.76a.985.985 0 0 1-.986.985.985.985 0 0 1-.985-.986.985.985 0 0 1 .985-.986.985.985 0 0 1 .986.986zm0 2.76a.985.985 0 0 1-.986.985.985.985 0 0 1-.985-.986.985.985 0 0 1 .985-.986.985.985 0 0 1 .986.986zm0 2.76a.985.985 0 0 1-.986.985.985.985 0 0 1-.985-.986.985.985 0 0 1 .985-.986.985.985 0 0 1 .986.986zm0 2.76a.985.985 0 0 1-.986.985.985.985 0 0 1-.985-.986.985.985 0 0 1 .985-.986.985.985 0 0 1 .986.986zm0 2.76a.985.985 0 0 1-.986.985.985.985 0 0 1-.985-.986.985.985 0 0 1 .985-.986.985.985 0 0 1 .986.986zm2.76-55.2a.985.985 0 0 1-.986.986.985.985 0 0 1-.985-.986.985.985 0 0 1 .985-.986.985.985 0 0 1 .986.986zm0 2.76a.985.985 0 0 1-.986.986.985.985 0 0 1-.985-.986.985.985 0 0 1 .985-.986.985.985 0 0 1 .986.986zm0 2.76a.985.985 0 0 1-.986.986.985.985 0 0 1-.985-.986.985.985 0 0 1 .985-.986.985.985 0 0 1 .986.986zm0 2.76a.985.985 0 0 1-.986.986.985.985 0 0 1-.985-.986.985.985 0 0 1 .985-.986.985.985 0 0 1 .986.986zm0 2.76a.985.985 0 0 1-.986.986.985.985 0 0 1-.985-.986.985.985 0 0 1 .985-.986.985.985 0 0 1 .986.986zm0 2.76a.985.985 0 0 1-.986.986.985.985 0 0 1-.985-.986.985.985 0 0 1 .985-.986.985.985 0 0 1 .986.986zm0 2.76a.985.985 0 0 1-.986.986.985.985 0 0 1-.985-.986.985.985 0 0 1 .985-.986.985.985 0 0 1 .986.986zm0 2.76a.985.985 0 0 1-.986.986.985.985 0 0 1-.985-.986.985.985 0 0 1 .985-.986.985.985 0 0 1 .986.986zm0 2.76a.985.985 0 0 1-.986.986.985.985 0 0 1-.985-.986.985.985 0 0 1 .985-.986.985.985 0 0 1 .986.986zm0 2.76a.985.985 0 0 1-.986.986.985.985 0 0 1-.985-.987.985.985 0 0 1 .985-.985.985.985 0 0 1 .986.985zm0 2.76a.985.985 0 0 1-.986.986.985.985 0 0 1-.985-.987.985.985 0 0 1 .985-.985.985.985 0 0 1 .986.985zm0 2.76a.985.985 0 0 1-.986.985.985.985 0 0 1-.985-.986.985.985 0 0 1 .985-.985.985.985 0 0 1 .986.985zm0 2.76a.985.985 0 0 1-.986.985.985.985 0 0 1-.985-.986.985.985 0 0 1 .985-.985.985.985 0 0 1 .986.985zm0 2.76a.985.985 0 0 1-.986.985.985.985 0 0 1-.985-.986.985.985 0 0 1 .985-.985.985.985 0 0 1 .986.985zm0 2.76a.985.985 0 0 1-.986.985.985.985 0 0 1-.985-.986.985.985 0 0 1 .985-.986.985.985 0 0 1 .986.986zm0 2.76a.985.985 0 0 1-.986.985.985.985 0 0 1-.985-.986.985.985 0 0 1 .985-.985.985.985 0 0 1 .986.985zm0 2.76a.985.985 0 0 1-.986.985.985.985 0 0 1-.985-.986.985.985 0 0 1 .985-.986.985.985 0 0 1 .986.986zm0 2.76a.985.985 0 0 1-.986.985.985.985 0 0 1-.985-.986.985.985 0 0 1 .985-.986.985.985 0 0 1 .986.986zm0 2.76a.985.985 0 0 1-.986.985.985.985 0 0 1-.985-.986.985.985 0 0 1 .985-.986.985.985 0 0 1 .986.986zm0 2.76a.985.985 0 0 1-.986.985.985.985 0 0 1-.985-.986.985.985 0 0 1 .985-.986.985.985 0 0 1 .986.986zm0 2.76a.985.985 0 0 1-.986.985.985.985 0 0 1-.985-.986.985.985 0 0 1 .985-.986.985.985 0 0 1 .986.986zm2.76-55.2a.985.985 0 0 1-.986.986.985.985 0 0 1-.985-.986.985.985 0 0 1 .985-.986.985.985 0 0 1 .986.986zm0 2.76a.985.985 0 0 1-.986.986.985.985 0 0 1-.985-.986.985.985 0 0 1 .985-.986.985.985 0 0 1 .986.986zm0 2.76a.985.985 0 0 1-.986.986.985.985 0 0 1-.985-.986.985.985 0 0 1 .985-.986.985.985 0 0 1 .986.986zm0 2.76a.985.985 0 0 1-.986.986.985.985 0 0 1-.985-.986.985.985 0 0 1 .985-.986.985.985 0 0 1 .986.986zm0 2.76a.985.985 0 0 1-.986.986.985.985 0 0 1-.985-.986.985.985 0 0 1 .985-.986.985.985 0 0 1 .986.986zm0 2.76a.985.985 0 0 1-.986.986.985.985 0 0 1-.985-.986.985.985 0 0 1 .985-.986.985.985 0 0 1 .986.986zm0 2.76a.985.985 0 0 1-.986.986.985.985 0 0 1-.985-.986.985.985 0 0 1 .985-.986.985.985 0 0 1 .986.986zm0 2.76a.985.985 0 0 1-.986.986.985.985 0 0 1-.985-.986.985.985 0 0 1 .985-.986.985.985 0 0 1 .986.986zm0 2.76a.985.985 0 0 1-.986.986.985.985 0 0 1-.985-.986.985.985 0 0 1 .985-.986.985.985 0 0 1 .986.986zm0 2.76a.985.985 0 0 1-.986.986.985.985 0 0 1-.985-.987.985.985 0 0 1 .985-.985.985.985 0 0 1 .986.985zm0 2.76a.985.985 0 0 1-.986.986.985.985 0 0 1-.985-.987.985.985 0 0 1 .985-.985.985.985 0 0 1 .986.985zm0 2.76a.985.985 0 0 1-.986.985.985.985 0 0 1-.985-.986.985.985 0 0 1 .985-.985.985.985 0 0 1 .986.985zm0 2.76a.985.985 0 0 1-.986.985.985.985 0 0 1-.985-.986.985.985 0 0 1 .985-.985.985.985 0 0 1 .986.985zm0 2.76a.985.985 0 0 1-.986.985.985.985 0 0 1-.985-.986.985.985 0 0 1 .985-.985.985.985 0 0 1 .986.985zm0 2.76a.985.985 0 0 1-.986.985.985.985 0 0 1-.985-.986.985.985 0 0 1 .985-.986.985.985 0 0 1 .986.986zm0 2.76a.985.985 0 0 1-.986.985.985.985 0 0 1-.985-.986.985.985 0 0 1 .985-.985.985.985 0 0 1 .986.985zm0 2.76a.985.985 0 0 1-.986.985.985.985 0 0 1-.985-.986.985.985 0 0 1 .985-.986.985.985 0 0 1 .986.986zm0 2.76a.985.985 0 0 1-.986.985.985.985 0 0 1-.985-.986.985.985 0 0 1 .985-.986.985.985 0 0 1 .986.986zm0 2.76a.985.985 0 0 1-.986.985.985.985 0 0 1-.985-.986.985.985 0 0 1 .985-.986.985.985 0 0 1 .986.986zm0 2.76a.985.985 0 0 1-.986.985.985.985 0 0 1-.985-.986.985.985 0 0 1 .985-.986.985.985 0 0 1 .986.986zm0 2.76a.985.985 0 0 1-.986.985.985.985 0 0 1-.985-.986.985.985 0 0 1 .985-.986.985.985 0 0 1 .986.986zm2.76-44.16a.985.985 0 0 1-.986.986.985.985 0 0 1-.985-.986.985.985 0 0 1 .985-.986.985.985 0 0 1 .986.986zm0 2.76a.985.985 0 0 1-.986.986.985.985 0 0 1-.985-.986.985.985 0 0 1 .985-.986.985.985 0 0 1 .986.986zm0 2.76a.985.985 0 0 1-.986.986.985.985 0 0 1-.985-.986.985.985 0 0 1 .985-.986.985.985 0 0 1 .986.986zm0 2.76a.985.985 0 0 1-.986.986.985.985 0 0 1-.985-.986.985.985 0 0 1 .985-.986.985.985 0 0 1 .986.986zm0 2.76a.985.985 0 0 1-.986.986.985.985 0 0 1-.985-.986.985.985 0 0 1 .985-.986.985.985 0 0 1 .986.986zm0 2.76a.985.985 0 0 1-.986.986.985.985 0 0 1-.985-.987.985.985 0 0 1 .985-.985.985.985 0 0 1 .986.985zm0 2.76a.985.985 0 0 1-.986.986.985.985 0 0 1-.985-.987.985.985 0 0 1 .985-.985.985.985 0 0 1 .986.985zm0 2.76a.985.985 0 0 1-.986.985.985.985 0 0 1-.985-.986.985.985 0 0 1 .985-.985.985.985 0 0 1 .986.985zm0 2.76a.985.985 0 0 1-.986.985.985.985 0 0 1-.985-.986.985.985 0 0 1 .985-.985.985.985 0 0 1 .986.985zm0 2.76a.985.985 0 0 1-.986.985.985.985 0 0 1-.985-.986.985.985 0 0 1 .985-.985.985.985 0 0 1 .986.985zm0 2.76a.985.985 0 0 1-.986.985.985.985 0 0 1-.985-.986.985.985 0 0 1 .985-.986.985.985 0 0 1 .986.986zm0 2.76a.985.985 0 0 1-.986.985.985.985 0 0 1-.985-.986.985.985 0 0 1 .985-.985.985.985 0 0 1 .986.985zm0 2.76a.985.985 0 0 1-.986.985.985.985 0 0 1-.985-.986.985.985 0 0 1 .985-.986.985.985 0 0 1 .986.986zm0 2.76a.985.985 0 0 1-.986.985.985.985 0 0 1-.985-.986.985.985 0 0 1 .985-.986.985.985 0 0 1 .986.986zm0 2.76a.985.985 0 0 1-.986.985.985.985 0 0 1-.985-.986.985.985 0 0 1 .985-.986.985.985 0 0 1 .986.986zm0 2.76a.985.985 0 0 1-.986.985.985.985 0 0 1-.985-.986.985.985 0 0 1 .985-.986.985.985 0 0 1 .986.986zm0 2.76a.985.985 0 0 1-.986.985.985.985 0 0 1-.985-.986.985.985 0 0 1 .985-.986.985.985 0 0 1 .986.986zm0 2.76a.985.985 0 0 1-.986.985.985.985 0 0 1-.985-.986.985.985 0 0 1 .985-.986.985.985 0 0 1 .986.986zm2.76-46.92a.985.985 0 0 1-.986.986.985.985 0 0 1-.985-.986.985.985 0 0 1 .985-.986.985.985 0 0 1 .986.986zm0 2.76a.985.985 0 0 1-.986.986.985.985 0 0 1-.985-.986.985.985 0 0 1 .985-.986.985.985 0 0 1 .986.986zm0 2.76a.985.985 0 0 1-.986.986.985.985 0 0 1-.985-.986.985.985 0 0 1 .985-.986.985.985 0 0 1 .986.986zm0 2.76a.985.985 0 0 1-.986.986.985.985 0 0 1-.985-.986.985.985 0 0 1 .985-.986.985.985 0 0 1 .986.986zm0 2.76a.985.985 0 0 1-.986.986.985.985 0 0 1-.985-.986.985.985 0 0 1 .985-.986.985.985 0 0 1 .986.986zm0 2.76a.985.985 0 0 1-.986.986.985.985 0 0 1-.985-.987.985.985 0 0 1 .985-.985.985.985 0 0 1 .986.985zm0 2.76a.985.985 0 0 1-.986.986.985.985 0 0 1-.985-.987.985.985 0 0 1 .985-.985.985.985 0 0 1 .986.985zm0 2.76a.985.985 0 0 1-.986.985.985.985 0 0 1-.985-.986.985.985 0 0 1 .985-.985.985.985 0 0 1 .986.985zm0 2.76a.985.985 0 0 1-.986.985.985.985 0 0 1-.985-.986.985.985 0 0 1 .985-.985.985.985 0 0 1 .986.985zm0 2.76a.985.985 0 0 1-.986.985.985.985 0 0 1-.985-.986.985.985 0 0 1 .985-.985.985.985 0 0 1 .986.985zm0 2.76a.985.985 0 0 1-.986.985.985.985 0 0 1-.985-.986.985.985 0 0 1 .985-.986.985.985 0 0 1 .986.986zm0 2.76a.985.985 0 0 1-.986.985.985.985 0 0 1-.985-.986.985.985 0 0 1 .985-.985.985.985 0 0 1 .986.985zm0 2.76a.985.985 0 0 1-.986.985.985.985 0 0 1-.985-.986.985.985 0 0 1 .985-.986.985.985 0 0 1 .986.986zm0 2.76a.985.985 0 0 1-.986.985.985.985 0 0 1-.985-.986.985.985 0 0 1 .985-.986.985.985 0 0 1 .986.986zm0 2.76a.985.985 0 0 1-.986.985.985.985 0 0 1-.985-.986.985.985 0 0 1 .985-.986.985.985 0 0 1 .986.986zm0 2.76a.985.985 0 0 1-.986.985.985.985 0 0 1-.985-.986.985.985 0 0 1 .985-.986.985.985 0 0 1 .986.986zm0 2.76a.985.985 0 0 1-.986.985.985.985 0 0 1-.985-.986.985.985 0 0 1 .985-.986.985.985 0 0 1 .986.986zm0 2.76a.985.985 0 0 1-.986.985.985.985 0 0 1-.985-.986.985.985 0 0 1 .985-.986.985.985 0 0 1 .986.986zm2.76-46.92a.985.985 0 0 1-.986.986.985.985 0 0 1-.985-.986.985.985 0 0 1 .985-.986.985.985 0 0 1 .986.986zm0 2.76a.985.985 0 0 1-.986.986.985.985 0 0 1-.985-.986.985.985 0 0 1 .985-.986.985.985 0 0 1 .986.986zm0 2.76a.985.985 0 0 1-.986.986.985.985 0 0 1-.985-.986.985.985 0 0 1 .985-.986.985.985 0 0 1 .986.986zm0 2.76a.985.985 0 0 1-.986.986.985.985 0 0 1-.985-.986.985.985 0 0 1 .985-.986.985.985 0 0 1 .986.986zm0 2.76a.985.985 0 0 1-.986.986.985.985 0 0 1-.985-.986.985.985 0 0 1 .985-.986.985.985 0 0 1 .986.986zm0 2.76a.985.985 0 0 1-.986.986.985.985 0 0 1-.985-.987.985.985 0 0 1 .985-.985.985.985 0 0 1 .986.985zm0 2.76a.985.985 0 0 1-.986.986.985.985 0 0 1-.985-.987.985.985 0 0 1 .985-.985.985.985 0 0 1 .986.985zm0 2.76a.985.985 0 0 1-.986.985.985.985 0 0 1-.985-.986.985.985 0 0 1 .985-.985.985.985 0 0 1 .986.985zm0 2.76a.985.985 0 0 1-.986.985.985.985 0 0 1-.985-.986.985.985 0 0 1 .985-.985.985.985 0 0 1 .986.985zm0 2.76a.985.985 0 0 1-.986.985.985.985 0 0 1-.985-.986.985.985 0 0 1 .985-.985.985.985 0 0 1 .986.985zm0 2.76a.985.985 0 0 1-.986.985.985.985 0 0 1-.985-.986.985.985 0 0 1 .985-.986.985.985 0 0 1 .986.986zm0 2.76a.985.985 0 0 1-.986.985.985.985 0 0 1-.985-.986.985.985 0 0 1 .985-.985.985.985 0 0 1 .986.985zm0 2.76a.985.985 0 0 1-.986.985.985.985 0 0 1-.985-.986.985.985 0 0 1 .985-.986.985.985 0 0 1 .986.986zm0 2.76a.985.985 0 0 1-.986.985.985.985 0 0 1-.985-.986.985.985 0 0 1 .985-.986.985.985 0 0 1 .986.986zm0 2.76a.985.985 0 0 1-.986.985.985.985 0 0 1-.985-.986.985.985 0 0 1 .985-.986.985.985 0 0 1 .986.986zm0 2.76a.985.985 0 0 1-.986.985.985.985 0 0 1-.985-.986.985.985 0 0 1 .985-.986.985.985 0 0 1 .986.986zm0 2.76a.985.985 0 0 1-.986.985.985.985 0 0 1-.985-.986.985.985 0 0 1 .985-.986.985.985 0 0 1 .986.986zm0 2.76a.985.985 0 0 1-.986.985.985.985 0 0 1-.985-.986.985.985 0 0 1 .985-.986.985.985 0 0 1 .986.986zm2.76-46.92a.985.985 0 0 1-.986.986.985.985 0 0 1-.985-.986.985.985 0 0 1 .985-.986.985.985 0 0 1 .986.986zm0 2.76a.985.985 0 0 1-.986.986.985.985 0 0 1-.985-.986.985.985 0 0 1 .985-.986.985.985 0 0 1 .986.986zm0 2.76a.985.985 0 0 1-.986.986.985.985 0 0 1-.985-.986.985.985 0 0 1 .985-.986.985.985 0 0 1 .986.986zm0 2.76a.985.985 0 0 1-.986.986.985.985 0 0 1-.985-.986.985.985 0 0 1 .985-.986.985.985 0 0 1 .986.986zm0 2.76a.985.985 0 0 1-.986.986.985.985 0 0 1-.985-.986.985.985 0 0 1 .985-.986.985.985 0 0 1 .986.986zm0 2.76a.985.985 0 0 1-.986.986.985.985 0 0 1-.985-.987.985.985 0 0 1 .985-.985.985.985 0 0 1 .986.985zm0 2.76a.985.985 0 0 1-.986.986.985.985 0 0 1-.985-.987.985.985 0 0 1 .985-.985.985.985 0 0 1 .986.985zm0 2.76a.985.985 0 0 1-.986.985.985.985 0 0 1-.985-.986.985.985 0 0 1 .985-.985.985.985 0 0 1 .986.985zm0 2.76a.985.985 0 0 1-.986.985.985.985 0 0 1-.985-.986.985.985 0 0 1 .985-.985.985.985 0 0 1 .986.985zm0 2.76a.985.985 0 0 1-.986.985.985.985 0 0 1-.985-.986.985.985 0 0 1 .985-.985.985.985 0 0 1 .986.985zm0 2.76a.985.985 0 0 1-.986.985.985.985 0 0 1-.985-.986.985.985 0 0 1 .985-.986.985.985 0 0 1 .986.986zm0 2.76a.985.985 0 0 1-.986.985.985.985 0 0 1-.985-.986.985.985 0 0 1 .985-.985.985.985 0 0 1 .986.985zm0 2.76a.985.985 0 0 1-.986.985.985.985 0 0 1-.985-.986.985.985 0 0 1 .985-.986.985.985 0 0 1 .986.986zm0 2.76a.985.985 0 0 1-.986.985.985.985 0 0 1-.985-.986.985.985 0 0 1 .985-.986.985.985 0 0 1 .986.986zm0 2.76a.985.985 0 0 1-.986.985.985.985 0 0 1-.985-.986.985.985 0 0 1 .985-.986.985.985 0 0 1 .986.986zm0 2.76a.985.985 0 0 1-.986.985.985.985 0 0 1-.985-.986.985.985 0 0 1 .985-.986.985.985 0 0 1 .986.986zm0 2.76a.985.985 0 0 1-.986.985.985.985 0 0 1-.985-.986.985.985 0 0 1 .985-.986.985.985 0 0 1 .986.986zm0 2.76a.985.985 0 0 1-.986.985.985.985 0 0 1-.985-.986.985.985 0 0 1 .985-.986.985.985 0 0 1 .986.986zm0 2.76a.985.985 0 0 1-.986.985.985.985 0 0 1-.985-.986.985.985 0 0 1 .985-.986.985.985 0 0 1 .986.986zm2.76-49.68a.985.985 0 0 1-.986.986.985.985 0 0 1-.986-.986.985.985 0 0 1 .986-.986.985.985 0 0 1 .985.986zm0 2.76a.985.985 0 0 1-.986.986.985.985 0 0 1-.986-.986.985.985 0 0 1 .986-.986.985.985 0 0 1 .985.986zm0 2.76a.985.985 0 0 1-.986.986.985.985 0 0 1-.986-.986.985.985 0 0 1 .986-.986.985.985 0 0 1 .985.986zm0 2.76a.985.985 0 0 1-.986.986.985.985 0 0 1-.986-.986.985.985 0 0 1 .986-.986.985.985 0 0 1 .985.986zm0 2.76a.985.985 0 0 1-.986.986.985.985 0 0 1-.986-.986.985.985 0 0 1 .986-.986.985.985 0 0 1 .985.986zm0 2.76a.985.985 0 0 1-.986.986.985.985 0 0 1-.986-.987.985.985 0 0 1 .986-.985.985.985 0 0 1 .985.985zm0 2.76a.985.985 0 0 1-.986.986.985.985 0 0 1-.986-.987.985.985 0 0 1 .986-.985.985.985 0 0 1 .985.985zm0 2.76a.985.985 0 0 1-.986.985.985.985 0 0 1-.986-.986.985.985 0 0 1 .986-.985.985.985 0 0 1 .985.985zm0 2.76a.985.985 0 0 1-.986.985.985.985 0 0 1-.986-.986.985.985 0 0 1 .986-.985.985.985 0 0 1 .985.985zm0 2.76a.985.985 0 0 1-.986.985.985.985 0 0 1-.986-.986.985.985 0 0 1 .986-.985.985.985 0 0 1 .985.985zm0 2.76a.985.985 0 0 1-.986.985.985.985 0 0 1-.986-.986.985.985 0 0 1 .986-.986.985.985 0 0 1 .985.986zm0 2.76a.985.985 0 0 1-.986.985.985.985 0 0 1-.986-.986.985.985 0 0 1 .986-.985.985.985 0 0 1 .985.985zm0 2.76a.985.985 0 0 1-.986.985.985.985 0 0 1-.986-.986.985.985 0 0 1 .986-.986.985.985 0 0 1 .985.986zm0 2.76a.985.985 0 0 1-.986.985.985.985 0 0 1-.986-.986.985.985 0 0 1 .986-.986.985.985 0 0 1 .985.986zm0 2.76a.985.985 0 0 1-.986.985.985.985 0 0 1-.986-.986.985.985 0 0 1 .986-.986.985.985 0 0 1 .985.986zm0 2.76a.985.985 0 0 1-.986.985.985.985 0 0 1-.986-.986.985.985 0 0 1 .986-.986.985.985 0 0 1 .985.986zm0 2.76a.985.985 0 0 1-.986.985.985.985 0 0 1-.986-.986.985.985 0 0 1 .986-.986.985.985 0 0 1 .985.986zm0 2.76a.985.985 0 0 1-.986.985.985.985 0 0 1-.986-.986.985.985 0 0 1 .986-.986.985.985 0 0 1 .985.986zm0 2.76a.985.985 0 0 1-.986.985.985.985 0 0 1-.986-.986.985.985 0 0 1 .986-.986.985.985 0 0 1 .985.986zm2.76-49.68a.985.985 0 0 1-.986.986.985.985 0 0 1-.985-.986.985.985 0 0 1 .985-.986.985.985 0 0 1 .986.986zm0 2.76a.985.985 0 0 1-.986.986.985.985 0 0 1-.985-.986.985.985 0 0 1 .985-.986.985.985 0 0 1 .986.986zm0 2.76a.985.985 0 0 1-.986.986.985.985 0 0 1-.985-.986.985.985 0 0 1 .985-.986.985.985 0 0 1 .986.986zm0 2.76a.985.985 0 0 1-.986.986.985.985 0 0 1-.985-.986.985.985 0 0 1 .985-.986.985.985 0 0 1 .986.986zm0 2.76a.985.985 0 0 1-.986.986.985.985 0 0 1-.985-.986.985.985 0 0 1 .985-.986.985.985 0 0 1 .986.986zm0 2.76a.985.985 0 0 1-.986.986.985.985 0 0 1-.985-.987.985.985 0 0 1 .985-.985.985.985 0 0 1 .986.985zm0 5.52a.985.985 0 0 1-.986.985.985.985 0 0 1-.985-.986.985.985 0 0 1 .985-.985.985.985 0 0 1 .986.985zm0 2.76a.985.985 0 0 1-.986.985.985.985 0 0 1-.985-.986.985.985 0 0 1 .985-.985.985.985 0 0 1 .986.985zm0 2.76a.985.985 0 0 1-.986.985.985.985 0 0 1-.985-.986.985.985 0 0 1 .985-.985.985.985 0 0 1 .986.985zm0 2.76a.985.985 0 0 1-.986.985.985.985 0 0 1-.985-.986.985.985 0 0 1 .985-.986.985.985 0 0 1 .986.986zm0 2.76a.985.985 0 0 1-.986.985.985.985 0 0 1-.985-.986.985.985 0 0 1 .985-.985.985.985 0 0 1 .986.985zm0 2.76a.985.985 0 0 1-.986.985.985.985 0 0 1-.985-.986.985.985 0 0 1 .985-.986.985.985 0 0 1 .986.986zm0 2.76a.985.985 0 0 1-.986.985.985.985 0 0 1-.985-.986.985.985 0 0 1 .985-.986.985.985 0 0 1 .986.986zm0 2.76a.985.985 0 0 1-.986.985.985.985 0 0 1-.985-.986.985.985 0 0 1 .985-.986.985.985 0 0 1 .986.986zm0 2.76a.985.985 0 0 1-.986.985.985.985 0 0 1-.985-.986.985.985 0 0 1 .985-.986.985.985 0 0 1 .986.986zm0 2.76a.985.985 0 0 1-.986.985.985.985 0 0 1-.985-.986.985.985 0 0 1 .985-.986.985.985 0 0 1 .986.986zm0 2.76a.985.985 0 0 1-.986.985.985.985 0 0 1-.985-.986.985.985 0 0 1 .985-.986.985.985 0 0 1 .986.986zm0 2.76a.985.985 0 0 1-.986.985.985.985 0 0 1-.985-.986.985.985 0 0 1 .985-.986.985.985 0 0 1 .986.986zm2.76-49.68a.985.985 0 0 1-.986.986.985.985 0 0 1-.986-.986.985.985 0 0 1 .986-.986.985.985 0 0 1 .985.986zm0 2.76a.985.985 0 0 1-.986.986.985.985 0 0 1-.986-.986.985.985 0 0 1 .986-.986.985.985 0 0 1 .985.986zm0 2.76a.985.985 0 0 1-.986.986.985.985 0 0 1-.986-.986.985.985 0 0 1 .986-.986.985.985 0 0 1 .985.986zm0 2.76a.985.985 0 0 1-.986.986.985.985 0 0 1-.986-.986.985.985 0 0 1 .986-.986.985.985 0 0 1 .985.986zm0 2.76a.985.985 0 0 1-.986.986.985.985 0 0 1-.986-.986.985.985 0 0 1 .986-.986.985.985 0 0 1 .985.986zm0 16.56a.985.985 0 0 1-.986.985.985.985 0 0 1-.986-.986.985.985 0 0 1 .986-.986.985.985 0 0 1 .985.986zm0 2.76a.985.985 0 0 1-.986.985.985.985 0 0 1-.986-.986.985.985 0 0 1 .986-.985.985.985 0 0 1 .985.985zm0 2.76a.985.985 0 0 1-.986.985.985.985 0 0 1-.986-.986.985.985 0 0 1 .986-.986.985.985 0 0 1 .985.986zm0 2.76a.985.985 0 0 1-.986.985.985.985 0 0 1-.986-.986.985.985 0 0 1 .986-.986.985.985 0 0 1 .985.986zm0 2.76a.985.985 0 0 1-.986.985.985.985 0 0 1-.986-.986.985.985 0 0 1 .986-.986.985.985 0 0 1 .985.986zm0 2.76a.985.985 0 0 1-.986.985.985.985 0 0 1-.986-.986.985.985 0 0 1 .986-.986.985.985 0 0 1 .985.986zm0 2.76a.985.985 0 0 1-.986.985.985.985 0 0 1-.986-.986.985.985 0 0 1 .986-.986.985.985 0 0 1 .985.986zm0 2.76a.985.985 0 0 1-.986.985.985.985 0 0 1-.986-.986.985.985 0 0 1 .986-.986.985.985 0 0 1 .985.986zm0 2.76a.985.985 0 0 1-.986.985.985.985 0 0 1-.986-.986.985.985 0 0 1 .986-.986.985.985 0 0 1 .985.986zm0 2.76a.985.985 0 0 1-.986.985.985.985 0 0 1-.986-.986.985.985 0 0 1 .986-.986.985.985 0 0 1 .985.986zm2.76-52.44a.985.985 0 0 1-.986.986.985.985 0 0 1-.986-.986.985.985 0 0 1 .986-.986.985.985 0 0 1 .985.986zm0 2.76a.985.985 0 0 1-.986.986.985.985 0 0 1-.986-.986.985.985 0 0 1 .986-.986.985.985 0 0 1 .985.986zm0 2.76a.985.985 0 0 1-.986.986.985.985 0 0 1-.986-.986.985.985 0 0 1 .986-.986.985.985 0 0 1 .985.986zm0 2.76a.985.985 0 0 1-.986.986.985.985 0 0 1-.986-.986.985.985 0 0 1 .986-.986.985.985 0 0 1 .985.986zm0 11.04a.985.985 0 0 1-.986.985.985.985 0 0 1-.986-.986.985.985 0 0 1 .986-.985.985.985 0 0 1 .985.985zm0 2.76a.985.985 0 0 1-.986.985.985.985 0 0 1-.986-.986.985.985 0 0 1 .986-.985.985.985 0 0 1 .985.985zm0 2.76a.985.985 0 0 1-.986.985.985.985 0 0 1-.986-.986.985.985 0 0 1 .986-.985.985.985 0 0 1 .985.985zm0 2.76a.985.985 0 0 1-.986.985.985.985 0 0 1-.986-.986.985.985 0 0 1 .986-.986.985.985 0 0 1 .985.986zm0 2.76a.985.985 0 0 1-.986.985.985.985 0 0 1-.986-.986.985.985 0 0 1 .986-.985.985.985 0 0 1 .985.985zm0 2.76a.985.985 0 0 1-.986.985.985.985 0 0 1-.986-.986.985.985 0 0 1 .986-.986.985.985 0 0 1 .985.986zm0 2.76a.985.985 0 0 1-.986.985.985.985 0 0 1-.986-.986.985.985 0 0 1 .986-.986.985.985 0 0 1 .985.986zm0 2.76a.985.985 0 0 1-.986.985.985.985 0 0 1-.986-.986.985.985 0 0 1 .986-.986.985.985 0 0 1 .985.986zm0 2.76a.985.985 0 0 1-.986.985.985.985 0 0 1-.986-.986.985.985 0 0 1 .986-.986.985.985 0 0 1 .985.986zm0 2.76a.985.985 0 0 1-.986.985.985.985 0 0 1-.986-.986.985.985 0 0 1 .986-.986.985.985 0 0 1 .985.986zm0 2.76a.985.985 0 0 1-.986.985.985.985 0 0 1-.986-.986.985.985 0 0 1 .986-.986.985.985 0 0 1 .985.986zm0 2.76a.985.985 0 0 1-.986.985.985.985 0 0 1-.986-.986.985.985 0 0 1 .986-.986.985.985 0 0 1 .985.986zm0 2.76a.985.985 0 0 1-.986.985.985.985 0 0 1-.986-.986.985.985 0 0 1 .986-.986.985.985 0 0 1 .985.986zm2.76-52.44a.985.985 0 0 1-.986.986.985.985 0 0 1-.986-.986.985.985 0 0 1 .986-.986.985.985 0 0 1 .985.986zm0 2.76a.985.985 0 0 1-.986.986.985.985 0 0 1-.986-.986.985.985 0 0 1 .986-.986.985.985 0 0 1 .985.986zm0 2.76a.985.985 0 0 1-.986.986.985.985 0 0 1-.986-.986.985.985 0 0 1 .986-.986.985.985 0 0 1 .985.986zm0 2.76a.985.985 0 0 1-.986.986.985.985 0 0 1-.986-.986.985.985 0 0 1 .986-.986.985.985 0 0 1 .985.986zm0 8.28a.985.985 0 0 1-.986.986.985.985 0 0 1-.986-.987.985.985 0 0 1 .986-.985.985.985 0 0 1 .985.985zm0 2.76a.985.985 0 0 1-.986.985.985.985 0 0 1-.986-.986.985.985 0 0 1 .986-.985.985.985 0 0 1 .985.985zm0 2.76a.985.985 0 0 1-.986.985.985.985 0 0 1-.986-.986.985.985 0 0 1 .986-.985.985.985 0 0 1 .985.985zm0 2.76a.985.985 0 0 1-.986.985.985.985 0 0 1-.986-.986.985.985 0 0 1 .986-.985.985.985 0 0 1 .985.985zm0 2.76a.985.985 0 0 1-.986.985.985.985 0 0 1-.986-.986.985.985 0 0 1 .986-.986.985.985 0 0 1 .985.986zm0 2.76a.985.985 0 0 1-.986.985.985.985 0 0 1-.986-.986.985.985 0 0 1 .986-.985.985.985 0 0 1 .985.985zm0 2.76a.985.985 0 0 1-.986.985.985.985 0 0 1-.986-.986.985.985 0 0 1 .986-.986.985.985 0 0 1 .985.986zm0 2.76a.985.985 0 0 1-.986.985.985.985 0 0 1-.986-.986.985.985 0 0 1 .986-.986.985.985 0 0 1 .985.986zm0 2.76a.985.985 0 0 1-.986.985.985.985 0 0 1-.986-.986.985.985 0 0 1 .986-.986.985.985 0 0 1 .985.986zm0 2.76a.985.985 0 0 1-.986.985.985.985 0 0 1-.986-.986.985.985 0 0 1 .986-.986.985.985 0 0 1 .985.986zm0 2.76a.985.985 0 0 1-.986.985.985.985 0 0 1-.986-.986.985.985 0 0 1 .986-.986.985.985 0 0 1 .985.986zm0 2.76a.985.985 0 0 1-.986.985.985.985 0 0 1-.986-.986.985.985 0 0 1 .986-.986.985.985 0 0 1 .985.986zm0 2.76a.985.985 0 0 1-.986.985.985.985 0 0 1-.986-.986.985.985 0 0 1 .986-.986.985.985 0 0 1 .985.986zm0 2.76a.985.985 0 0 1-.986.985.985.985 0 0 1-.986-.986.985.985 0 0 1 .986-.986.985.985 0 0 1 .985.986zm2.76-49.68a.985.985 0 0 1-.986.986.985.985 0 0 1-.986-.986.985.985 0 0 1 .986-.986.985.985 0 0 1 .985.986zm0 16.56a.985.985 0 0 1-.986.985.985.985 0 0 1-.986-.986.985.985 0 0 1 .986-.985.985.985 0 0 1 .985.985zm0 2.76a.985.985 0 0 1-.986.985.985.985 0 0 1-.986-.986.985.985 0 0 1 .986-.985.985.985 0 0 1 .985.985zm0 2.76a.985.985 0 0 1-.986.985.985.985 0 0 1-.986-.986.985.985 0 0 1 .986-.985.985.985 0 0 1 .985.985zm0 2.76a.985.985 0 0 1-.986.985.985.985 0 0 1-.986-.986.985.985 0 0 1 .986-.986.985.985 0 0 1 .985.986zm0 2.76a.985.985 0 0 1-.986.985.985.985 0 0 1-.986-.986.985.985 0 0 1 .986-.985.985.985 0 0 1 .985.985zm0 2.76a.985.985 0 0 1-.986.985.985.985 0 0 1-.986-.986.985.985 0 0 1 .986-.986.985.985 0 0 1 .985.986zm0 2.76a.985.985 0 0 1-.986.985.985.985 0 0 1-.986-.986.985.985 0 0 1 .986-.986.985.985 0 0 1 .985.986zm0 2.76a.985.985 0 0 1-.986.985.985.985 0 0 1-.986-.986.985.985 0 0 1 .986-.986.985.985 0 0 1 .985.986zm0 2.76a.985.985 0 0 1-.986.985.985.985 0 0 1-.986-.986.985.985 0 0 1 .986-.986.985.985 0 0 1 .985.986zm0 2.76a.985.985 0 0 1-.986.985.985.985 0 0 1-.986-.986.985.985 0 0 1 .986-.986.985.985 0 0 1 .985.986zm0 8.28a.985.985 0 0 1-.986.985.985.985 0 0 1-.986-.986.985.985 0 0 1 .986-.986.985.985 0 0 1 .985.986zm2.76-11.04a.985.985 0 0 1-.986.985.985.985 0 0 1-.986-.986.985.985 0 0 1 .986-.986.985.985 0 0 1 .985.986zm0 2.76a.985.985 0 0 1-.986.985.985.985 0 0 1-.986-.986.985.985 0 0 1 .986-.986.985.985 0 0 1 .985.986zm0 2.76a.985.985 0 0 1-.986.985.985.985 0 0 1-.986-.986.985.985 0 0 1 .986-.986.985.985 0 0 1 .985.986z"
      data-original="#1a856c"
      style="display: inline; fill: #7bbee4; fill-opacity: 1; stroke-width: 0.685708"
   />
   <path
      fill="#000"
      d="M169.417 25.368a2.668 2.668 0 0 1 2.666 2.665v101.254a2.668 2.668 0 0 1-2.666 2.666H27.629a2.668 2.668 0 0 1-2.666-2.666V28.033a2.667 2.667 0 0 1 2.666-2.665h141.788Zm0-.368H27.629a3.036 3.036 0 0 0-3.033 3.033v101.254a3.036 3.036 0 0 0 3.033 3.033h141.788a3.037 3.037 0 0 0 3.034-3.033V28.033A3.037 3.037 0 0 0 169.417 25Z"
   />
   <path fill="#fff" d="M39.982 32.94a1.746 1.746 0 1 0 0-3.492 1.746 1.746 0 0 0 0 3.493Z" />
   <path
      fill="#000"
      d="M39.982 29.816c.754 0 1.379.625 1.379 1.378a1.39 1.39 0 0 1-1.379 1.38 1.389 1.389 0 0 1-1.379-1.38c0-.772.607-1.378 1.379-1.378Zm0-.368c-.956 0-1.746.79-1.746 1.746s.772 1.747 1.746 1.747c.956 0 1.746-.79 1.746-1.747-.018-.974-.79-1.746-1.746-1.746Z"
   />
   <path fill="#fff" d="M45.055 32.94a1.746 1.746 0 1 0 0-3.492 1.746 1.746 0 0 0 0 3.493Z" />
   <path
      fill="#000"
      d="M45.055 29.816c.754 0 1.379.625 1.379 1.378a1.39 1.39 0 0 1-1.379 1.38 1.389 1.389 0 0 1-1.379-1.38c0-.772.625-1.378 1.379-1.378Zm0-.368c-.956 0-1.746.79-1.746 1.746s.772 1.747 1.746 1.747c.956 0 1.746-.79 1.746-1.747 0-.974-.772-1.746-1.746-1.746Z"
   />
   <path fill="#fff" d="M50.148 32.94a1.746 1.746 0 1 0 0-3.492 1.746 1.746 0 0 0 0 3.493Z" />
   <path
      fill="#000"
      d="M50.148 29.816c.754 0 1.379.625 1.379 1.378a1.39 1.39 0 0 1-1.379 1.38 1.389 1.389 0 0 1-1.379-1.38c0-.772.625-1.378 1.379-1.378Zm0-.368c-.956 0-1.746.79-1.746 1.746a1.746 1.746 0 1 0 3.492 0c0-.974-.79-1.746-1.746-1.746Zm80.958.644a1.31 1.31 0 0 1 1.305 1.305v.184a1.31 1.31 0 0 1-1.305 1.305H67.354a1.31 1.31 0 0 1-1.305-1.305v-.184a1.31 1.31 0 0 1 1.305-1.305h63.752Zm0-.368H67.354c-.92 0-1.673.754-1.673 1.673v.184c0 .92.754 1.673 1.673 1.673h63.752a1.68 1.68 0 0 0 1.673-1.673v-.184a1.68 1.68 0 0 0-1.673-1.673Zm-101.438 77.65c-.11 0-.183-.073-.183-.184v-68.2h137.891v26.269c0 .11-.074.183-.184.183s-.184-.073-.184-.183V39.357H29.852v67.833a.184.184 0 0 1-.184.184Zm43.182 18.622H46.728c-.11 0-.184-.073-.184-.184 0-.11.074-.183.184-.183H72.85c.11 0 .184.073.184.183 0 .111-.073.184-.184.184Zm48.66 0H86.05c-.11 0-.184-.073-.184-.184 0-.11.073-.183.184-.183h35.46c.111 0 .184.073.184.183 0 .111-.073.184-.184.184Z"
   />
   <path fill="#DFF3FE" d="M40.585 58.327a4.614 4.614 0 1 0 0-9.228 4.614 4.614 0 0 0 0 9.228Z" />
   <path
      fill="#fff"
      d="M40.015 56.415a.255.255 0 0 1-.22-.128l-1.82-2.74c-.092-.128-.056-.293.073-.386.129-.091.294-.055.386.074l1.6 2.408 2.904-4.283c.092-.129.257-.165.386-.074.129.092.166.258.074.386l-3.126 4.615a.32.32 0 0 1-.257.128Z"
   />
   <path fill="#DFF3FE" d="M40.585 83.218a4.614 4.614 0 1 0 0-9.228 4.614 4.614 0 0 0 0 9.228Z" />
   <path
      fill="#fff"
      d="M40.015 81.306a.255.255 0 0 1-.22-.129l-1.82-2.739c-.092-.128-.056-.294.073-.386.129-.092.294-.055.386.074l1.6 2.408 2.904-4.283c.092-.129.257-.166.386-.074.129.092.166.258.074.386l-3.126 4.614a.32.32 0 0 1-.257.13Z"
   />
   <path fill="#DFF3FE" d="M40.585 70.773a4.614 4.614 0 1 0 0-9.229 4.614 4.614 0 0 0 0 9.229Z" />
   <path
      fill="#fff"
      d="M40.015 68.86a.255.255 0 0 1-.22-.128l-1.82-2.739c-.092-.129-.056-.294.073-.386.129-.092.294-.055.386.073l1.6 2.409 2.904-4.284c.092-.128.257-.165.386-.073.129.092.166.257.074.386l-3.126 4.614a.32.32 0 0 1-.257.129Z"
   />
   <path fill="#DFF3FE" d="M40.585 95.994a4.614 4.614 0 1 0 0-9.228 4.614 4.614 0 0 0 0 9.228Z" />
   <path
      fill="#fff"
      d="M40.015 94.082a.255.255 0 0 1-.22-.128l-1.82-2.74c-.092-.128-.056-.294.073-.385.129-.092.294-.056.386.073l1.6 2.408 2.904-4.283c.092-.129.257-.165.386-.074.129.092.166.258.074.386l-3.126 4.615c-.073.073-.165.128-.257.128Z"
   />
   <path fill="#DFF3FE" d="M40.585 108.439a4.614 4.614 0 1 0 0-9.228 4.614 4.614 0 0 0 0 9.228Z" />
   <path
      fill="#fff"
      d="M40.015 106.527a.255.255 0 0 1-.22-.128l-1.82-2.739c-.092-.129-.056-.295.073-.386.129-.092.294-.056.386.073l1.6 2.408 2.904-4.283c.092-.129.257-.165.386-.074.129.092.166.258.074.387l-3.126 4.614c-.073.073-.165.128-.257.128Z"
   />
   <path
      fill="#000"
      d="M71.562 52.446H49.337c-.11 0-.184-.074-.184-.184s.073-.184.184-.184h22.225c.11 0 .184.074.184.184a.184.184 0 0 1-.184.184Zm0 2.757H49.337c-.11 0-.184-.073-.184-.184 0-.11.073-.183.184-.183h22.225c.11 0 .184.073.184.183s-.074.184-.184.184Zm0 22.134H49.337c-.11 0-.184-.074-.184-.184s.073-.184.184-.184h22.225c.11 0 .184.074.184.184a.184.184 0 0 1-.184.184Zm0 2.757H49.337c-.11 0-.184-.073-.184-.184 0-.11.073-.184.184-.184h22.225c.11 0 .184.074.184.184s-.074.184-.184.184Zm0-15.203H49.337c-.11 0-.184-.073-.184-.184 0-.11.073-.183.184-.183h22.225c.11 0 .184.073.184.183s-.074.184-.184.184Zm0 2.758H49.337c-.11 0-.184-.074-.184-.184s.073-.184.184-.184h22.225c.11 0 .184.073.184.184 0 .11-.074.184-.184.184Zm0 22.464H49.337c-.11 0-.184-.074-.184-.184s.073-.184.184-.184h22.225c.11 0 .184.074.184.184a.184.184 0 0 1-.184.184Zm0 2.757H49.337c-.11 0-.184-.073-.184-.184 0-.11.073-.184.184-.184h22.225c.11 0 .184.074.184.184a.184.184 0 0 1-.184.184Zm0 9.688H49.337c-.11 0-.184-.074-.184-.184 0-.111.073-.184.184-.184h22.225c.11 0 .184.073.184.184a.184.184 0 0 1-.184.184Zm0 2.757H49.337c-.11 0-.184-.073-.184-.184 0-.11.073-.183.184-.183h22.225c.11 0 .184.073.184.183 0 .111-.074.184-.184.184ZM15.226 271.54h31.097c.14 0 .232-.093.232-.231 0-.139-.093-.232-.232-.232H15.227c-.14 0-.232.093-.232.232 0 .115.093.231.232.231Z"
   />
   <path
      fill="#fff"
      d="M50.396 186.047s-22.976-8.885-37.483 5.044c-14.507 13.929-15.41 74.457 33.41 80.218h72.56l-68.487-85.262Z"
   />
   <path
      fill="#000"
      d="M46.323 271.54h72.56c.092 0 .162-.046.208-.138.046-.07.023-.186-.023-.255l-68.487-85.262c-.023-.023-.07-.046-.093-.069-.046-.023-5.854-2.245-13.373-2.707-6.942-.44-16.798.555-24.364 7.82-4.026 3.864-7.034 11.245-8.214 20.222-1.273 9.602-.324 19.783 2.66 28.714 2.824 8.422 7.29 15.363 13.259 20.685 6.871 6.085 15.548 9.787 25.821 11.014.023-.024.046-.024.046-.024Zm72.097-.462H46.346c-18.903-2.245-32.647-13.374-38.685-31.375-6.456-19.273-2.314-41 5.437-48.45 7.427-7.126 17.168-8.121 24.017-7.682 7.033.44 12.563 2.43 13.165 2.661l68.14 84.846Z"
   />
   <path
      fill="#000"
      d="M24.157 224.085a.21.21 0 0 0 .185-.092c.07-.093.07-.255-.046-.324-3.563-2.823-6.2-6.803-7.427-11.199-.023-.116-.162-.185-.278-.162-.116.023-.185.162-.162.278a22.427 22.427 0 0 0 7.59 11.453c.023.023.069.046.138.046Z"
   />
   <path
      fill="#7BBEE4"
      d="M39.267 231.097c-5.946-1.597-11.036-3.772-14.715-6.918 0 0-.555-25.151 9.74-43.823a14.85 14.85 0 0 1 3.818-4.489c3.54-2.753 10.736-6.871 22.074-6.64 0 0 14.6 2.429 18.209 8.769 3.656 6.386 9.74 24.341 9.74 24.341l-48.866 28.76Z"
   />
   <path
      fill="#000"
      d="M69.647 202.66c.093 0 .186-.07.232-.162l4.026-13.929c.046-.116-.046-.255-.162-.278-.116-.046-.255.047-.278.162l-4.026 13.929c-.046.116.047.255.162.278h.046Z"
   />
   <path
      fill="#fff"
      d="M31.589 228.437s5.6-16.566 29.107-16.751c14.924-.116 33.457.092 44.979.277a17.678 17.678 0 0 1 15.688 10.042l19.967 41.624 6.872 5.392c.972.763.417 2.29-.786 2.29h-39.913a7.569 7.569 0 0 1-3.748-.995c-5.46-3.077-22.305-13.281-37.876-30.102-10.782-7.08-21.842-6.571-34.29-11.777Z"
   />
   <path
      fill="#000"
      d="M107.48 271.543h39.912c.648 0 1.226-.394 1.435-1.018a1.493 1.493 0 0 0-.509-1.689l-6.826-5.345-19.945-41.578c-2.961-6.178-9.046-10.065-15.872-10.158-12.471-.185-30.403-.393-44.98-.277a.231.231 0 1 0 0 .462c14.577-.115 32.509.093 44.98.278 6.664.093 12.587 3.887 15.479 9.903l19.945 41.601c.023.023.046.07.069.093l6.872 5.391c.44.347.463.833.347 1.18-.116.347-.44.717-.995.717H107.48a7.4 7.4 0 0 1-3.633-.949c-4.905-2.753-22.12-13.095-37.807-30.055l-.046-.046c-6.363-4.188-12.795-5.739-19.62-7.381-4.72-1.134-9.603-2.291-14.693-4.42-.116-.046-.254 0-.3.116-.047.116 0 .255.115.301 5.137 2.152 10.042 3.309 14.762 4.442 6.756 1.62 13.142 3.147 19.435 7.289 15.734 16.983 32.995 27.348 37.9 30.125a7.927 7.927 0 0 0 3.887 1.018Z"
   />
   <path
      fill="#000"
      d="M131.427 271.542h2.013c.879 0 1.619-.555 1.851-1.411.231-.856-.116-1.712-.88-2.152l-5.391-3.193-42.966-41.462a31.611 31.611 0 0 0-21.541-8.885l-3.795-.046a.231.231 0 0 0-.231.231c0 .139.092.231.231.231l3.795.047a31.148 31.148 0 0 1 21.24 8.746l42.99 41.462c.023.023.023.023.046.023l5.414 3.216c.694.417.787 1.134.671 1.643-.139.486-.578 1.064-1.411 1.064h-2.013c-.139 0-.232.093-.232.232-.023.139.07.254.209.254Z"
   />
   <path
      fill="#000"
      d="M100.122 236.999c.023 0 .046 0 .069-.023.116-.047.186-.162.139-.301l-4.442-13.327a.232.232 0 0 0-.301-.139.232.232 0 0 0-.139.301l4.443 13.327a.24.24 0 0 0 .231.162Zm-35.076 2.614a.21.21 0 0 0 .162-.069c.092-.093.07-.232-.023-.324-2.985-2.731-5.692-5.785-8.099-9.024a.248.248 0 0 0-.323-.046c-.093.069-.116.231-.047.324a62.217 62.217 0 0 0 8.168 9.093c.046.046.092.046.162.046Zm32.323 27.094 31.513-1.527a.232.232 0 0 0 0-.463l-31.49 1.527a.232.232 0 0 0-.232.231c-.023.139.093.232.209.232Zm30.635-2.846h13.304c.139 0 .231-.092.231-.231s-.092-.232-.231-.232h-13.304c-.139 0-.232.093-.232.232 0 .116.116.231.232.231Z"
   />
   <path
      fill="#7BBEE4"
      d="m52.435 183.154 7.774 19.066s24.85.347 27.21 4.303c2.337 3.957-1.435 5.53-1.435 5.53s-28.667 4.258-36.626 1.296c-7.96-2.985-12.888-20.893-13.975-27.58-1.088-6.71 17.052-2.615 17.052-2.615Z"
   />
   <path
      fill="#000"
      d="M49.358 213.581c.093 0 .185-.046.209-.139.046-.115-.023-.254-.14-.3-6.293-2.36-10.434-14.346-11.938-19.39a.252.252 0 0 0-.278-.162.252.252 0 0 0-.162.278c1.874 6.34 5.97 17.353 12.217 19.69.046 0 .07.023.092.023Zm38.061-6.826c.046 0 .07 0 .115-.024.116-.069.14-.208.093-.323-2.314-3.911-24.965-4.373-27.256-4.42l-6.918-16.936c-.046-.116-.185-.186-.3-.116-.117.046-.186.185-.117.301l6.965 17.052c.046.093.116.139.208.139.255 0 24.757.393 27.002 4.188.046.092.115.139.208.139Zm18.996 8.606H60.279a2.073 2.073 0 0 1-2.082-2.082c0-1.157.925-2.082 2.082-2.082h49.7l-3.564 4.164Z"
   />
   <path
      fill="#000"
      d="m106.416 215.362-33.804-.602 12.078-28.135a2.812 2.812 0 0 1 2.568-1.689h31.236c1.573 0 2.66 1.619 2.036 3.077l-10.713 25.22a3.506 3.506 0 0 1-3.401 2.129Z"
   />
   <path
      fill="#7BBEE4"
      d="M104.194 194.26a1.06 1.06 0 0 1-1.064 1.064 1.062 1.062 0 0 1-1.064-1.064c0-.579.462-1.065 1.064-1.065.602 0 1.064.463 1.064 1.065Z"
   />
   <path
      fill="#000"
      d="M62.13 173.345a.21.21 0 0 0 .184-.092c.255-.324.625-.741 1.018-1.203.602-.718 1.296-1.504 1.736-2.059.069-.093.069-.255-.047-.324-.092-.07-.254-.07-.324.046-.44.532-1.11 1.342-1.712 2.036-.393.463-.763.902-1.041 1.203-.093.093-.07.255.023.324.07.046.116.069.162.069Z"
   />
   <path
      fill="#fff"
      d="m59.977 162.217-3.4 5.044a4.272 4.272 0 0 1-1.921 1.573l-2.245.949s4.35 9.764 11.893 7.936c0 0 4.905-1.504.255-7.52l1.527-1.966-6.109-6.016Z"
   />
   <path
      fill="#000"
      d="M52.434 170.014c.023 0 .069 0 .092-.023l2.244-.949a4.44 4.44 0 0 0 2.013-1.665l3.402-5.044c.069-.116.046-.255-.07-.324-.116-.07-.254-.047-.324.069l-3.401 5.044a4.093 4.093 0 0 1-1.805 1.504l-2.244.949c-.116.046-.162.185-.116.3.023.093.116.139.209.139Z"
   />
   <path
      fill="#000"
      d="M63.055 172.281a.21.21 0 0 0 .185-.093l3.054-3.818c.07-.092.07-.231-.023-.3l-6.108-6.016a.223.223 0 0 0-.324 0 .224.224 0 0 0 0 .324l5.97 5.877-2.94 3.655c-.069.093-.069.255.047.324.023.023.07.047.139.047Z"
   />
   <path
      fill="#000"
      d="M59.7 149.63c.948.185 1.712.671 2.22 1.434.255-1.157 1.019-2.175 2.014-2.846.971-.671 2.151-1.018 3.331-1.157 2.592-.3 5.345.509 7.196 2.337 1.851 1.828 2.707 4.697 1.897 7.173-.81 2.476-3.355 4.35-5.946 4.141.3 1.435.51 2.916.278 4.35-.232 1.435-.949 2.869-2.175 3.656-1.389.902-3.24.856-4.767.231-1.527-.624-2.776-1.781-3.887-3.007-.647-.718-1.226-1.481-1.85-2.222-.325-.37-.625-.763-.973-1.11-.23-.232-.508-.394-.67-.671-.926-1.481-1.574-2.522-1.32-5.391.116-1.041 1.574-7.52 4.651-6.918Z"
   />
   <path
      fill="#fff"
      d="M68.445 155.02s1.365 3.702 1.736 6.386a1.606 1.606 0 0 1-.81 1.619c-.926.532-2.638 1.134-5.368.81-4.512-.532-4.558-3.933-4.79-5.275-.277-1.666.486-2.962 3.147-2.291 3.748.949 6.085-1.249 6.085-1.249Z"
   />
   <path
      fill="#000"
      d="M65.484 164.183c1.92 0 3.193-.486 4.003-.949a1.842 1.842 0 0 0 .925-1.851c-.37-2.684-1.735-6.409-1.735-6.432-.023-.07-.093-.116-.162-.139a.223.223 0 0 0-.209.046c-.023.023-2.313 2.106-5.876 1.203-1.32-.324-2.291-.231-2.893.324-.509.486-.717 1.25-.532 2.221.023.116.046.232.046.371.209 1.48.625 4.581 4.929 5.09.532.069 1.04.116 1.504.116Zm2.869-8.77c.324.949 1.319 3.841 1.596 6.039a1.373 1.373 0 0 1-.694 1.389c-.925.532-2.591 1.11-5.229.786-3.956-.463-4.327-3.216-4.535-4.697-.023-.139-.046-.277-.046-.393-.093-.578-.093-1.342.393-1.805.463-.439 1.319-.509 2.476-.231 3.123.787 5.298-.532 6.039-1.088Z"
   />
   <path
      fill="#fff"
      d="M59.143 163.466s-.694-1.342-1.157-2.73c0 0-2.823-1.481-3.263.786-.44 2.268 2.985 4.188 4.42 1.944Z"
   />
   <path
      fill="#000"
      d="M57.385 164.692c.694 0 1.434-.3 1.944-1.11a.211.211 0 0 0 0-.232c0-.023-.695-1.342-1.157-2.707a.348.348 0 0 0-.116-.139c-.07-.046-1.643-.833-2.707-.324-.463.232-.764.648-.88 1.273-.254 1.388.741 2.568 1.875 3.008.324.162.694.231 1.041.231Zm1.48-1.249c-.531.763-1.41.995-2.336.625-.926-.371-1.805-1.366-1.597-2.499.093-.486.301-.787.625-.949.671-.324 1.759.046 2.221.278.394 1.133.926 2.198 1.088 2.545Z"
   />
   <path
      fill="#000"
      d="M58.103 163.189a.21.21 0 0 0 .162-.07.223.223 0 0 0 0-.323 2.478 2.478 0 0 0-2.13-.648c-.115.023-.207.138-.184.254.023.116.139.208.254.185a2.16 2.16 0 0 1 1.736.532c.046.047.115.07.162.07Z"
   />
</svg>
