<svg xmlns="http://www.w3.org/2000/svg" fill="none" viewBox="0 0 200 272">
   <rect width="200" height="272" fill="#F5FBFF" rx="8" />
   <path
      fill="#DFF3FE"
      d="M111.795 162.156h61.538c3.746 0 6.794-3.019 6.794-6.729V27.729c0-3.71-3.048-6.729-6.794-6.729h-61.538c-3.747 0-6.795 3.02-6.795 6.729v127.698c0 3.71 3.048 6.729 6.795 6.729Z"
   />
   <path
      fill="#7BBEE4"
      d="M166.669 47.532c4.594 0 8.319-3.677 8.319-8.213s-3.725-8.213-8.319-8.213c-4.594 0-8.319 3.677-8.319 8.213s3.725 8.213 8.319 8.213Z"
   />
   <mask
      id="a"
      width="15"
      height="15"
      x="159"
      y="32"
      maskUnits="userSpaceOnUse"
      style="mask-type: luminance"
   >
      <path
         fill="#fff"
         d="M166.673 46.51c4.024 0 7.285-3.219 7.285-7.19 0-3.97-3.261-7.19-7.285-7.19-4.023 0-7.285 3.22-7.285 7.19 0 3.971 3.262 7.19 7.285 7.19Z"
      />
   </mask>
   <g mask="url(#a)">
      <path
         fill="#fff"
         d="M171.245 47.354h-9.119a.234.234 0 0 1-.181-.077.274.274 0 0 1-.078-.179l.465-8.93c.155-2.916 2.067-5.219 4.366-5.219 2.3 0 4.211 2.277 4.366 5.22l.465 8.93a.23.23 0 0 1-.077.178.416.416 0 0 1-.207.077Zm-8.861-.512h8.577l-.439-8.673c-.129-2.636-1.834-4.734-3.85-4.734-2.015 0-3.72 2.073-3.849 4.734l-.439 8.673Z"
      />
      <path
         fill="#fff"
         d="m170.806 42.8-4.133-.947-4.134.946a3.098 3.098 0 0 0-2.299 2.15l-.905 4.656h14.649l-.905-4.656c-.284-1.075-1.162-1.894-2.273-2.15Z"
      />
      <path
         fill="#fff"
         d="M166.673 44.36a1.778 1.778 0 0 1-1.783-1.765V39.32h3.565v3.275c0 .998-.801 1.766-1.782 1.766Z"
      />
      <path
         fill="#fff"
         d="M169.668 37.069a.674.674 0 0 0-.388.025c-.103-1.612-1.214-2.712-2.583-2.712-1.369 0-2.48 1.1-2.584 2.712a.67.67 0 0 0-.387-.025c-.388.102-.594.537-.491.972.103.435.517.742.904.64.052-.026.129-.052.181-.077.388 1.202 1.318 2.123 2.403 2.123s1.989-.92 2.402-2.123a1.3 1.3 0 0 0 .181.077c.388.102.775-.18.904-.64.052-.435-.181-.896-.542-.972Z"
      />
      <path
         fill="#7BBEE4"
         d="M166.672 40.983c-1.06 0-2.067-.819-2.558-2.047-.517.103-1.033-.255-1.163-.844a1.132 1.132 0 0 1 .13-.87.916.916 0 0 1 .568-.41c.077-.025.129-.025.207-.025.206-1.56 1.369-2.686 2.816-2.686 1.446 0 2.609 1.1 2.816 2.686a.57.57 0 0 1 .206.026.921.921 0 0 1 .569.41c.155.255.206.562.129.87-.155.562-.672.92-1.163.843-.491 1.228-1.498 2.047-2.557 2.047Zm-2.403-2.635c.026 0 .052 0 .077.026a.23.23 0 0 1 .155.153c.388 1.151 1.241 1.945 2.145 1.945.904 0 1.757-.768 2.144-1.945a.231.231 0 0 1 .155-.154.254.254 0 0 1 .233.026c.025.026.077.026.103.051.258.051.517-.153.594-.46a.615.615 0 0 0-.052-.486.41.41 0 0 0-.232-.18c-.078-.025-.155 0-.233.026a.252.252 0 0 1-.232-.026c-.078-.05-.103-.127-.129-.204-.104-1.433-1.085-2.482-2.351-2.482s-2.248 1.049-2.351 2.482c0 .077-.052.153-.129.205a.254.254 0 0 1-.233.025c-.077-.026-.155-.026-.232-.026a.35.35 0 0 0-.233.18.623.623 0 0 0-.052.486c.078.307.336.511.595.46a.2.2 0 0 0 .103-.05c.077-.026.129-.052.155-.052Z"
      />
      <path
         fill="#7BBEE4"
         d="M164.037 37.503c1.292-.23 2.661-1.381 3.462-2.405.155.921.982 1.97 1.834 2.354 0 0 .414-3.633-2.661-3.505-3.074.102-2.635 3.556-2.635 3.556Z"
      />
   </g>
   <path
      fill="#fff"
      d="M111.096 28.804c.785 0 1.421-.63 1.421-1.407s-.636-1.407-1.421-1.407-1.421.63-1.421 1.407.636 1.407 1.421 1.407ZM116.264 28.804c.784 0 1.421-.63 1.421-1.407s-.637-1.407-1.421-1.407c-.785 0-1.421.63-1.421 1.407s.636 1.407 1.421 1.407ZM121.43 28.804c.784 0 1.421-.63 1.421-1.407s-.637-1.407-1.421-1.407c-.785 0-1.421.63-1.421 1.407s.636 1.407 1.421 1.407ZM142.537 111.318c15.852 0 28.703-12.727 28.703-28.426 0-15.7-12.851-28.426-28.703-28.426-15.851 0-28.702 12.727-28.702 28.426 0 15.7 12.851 28.426 28.702 28.426Z"
   />
   <path
      fill="#7BBEE4"
      d="M131.399 76.266h-3.049v17.628h3.049V76.266ZM132.459 95.685V94.43h-5.167v1.254h-1.059v1.407h7.311v-1.407h-1.085Z"
   />
   <path
      fill="#7BBEE4"
      d="M129.489 93.46c-.155 0-.258-.103-.258-.257v-16.22c0-.154.103-.257.258-.257.155 0 .258.103.258.256v16.221a.257.257 0 0 1-.258.256ZM132.175 74.935h-4.573v.844h4.573v-.844ZM144.086 76.266h-3.048v17.628h3.048V76.266ZM145.119 95.685V94.43h-5.141v1.254h-1.085v1.407h7.311v-1.407h-1.085Z"
   />
   <path
      fill="#7BBEE4"
      d="M142.174 93.46c-.155 0-.258-.103-.258-.257v-16.22c0-.154.103-.257.258-.257.155 0 .258.103.258.256v16.221c0 .128-.129.256-.258.256ZM144.835 74.935h-4.573v.844h4.573v-.844ZM156.746 76.266h-3.048v17.628h3.048V76.266ZM157.779 95.685V94.43h-5.141v1.254h-1.085v1.407h7.311v-1.407h-1.085Z"
   />
   <path
      fill="#7BBEE4"
      d="M154.833 93.46c-.155 0-.258-.103-.258-.257v-16.22c0-.154.103-.257.258-.257.155 0 .258.103.258.256v16.221c0 .128-.129.256-.258.256ZM157.495 74.935h-4.573v.844h4.573v-.844ZM160.544 72.12h-35.987v2.175h35.987V72.12ZM160.544 97.706h-35.987v2.175h35.987v-2.175ZM142.538 63.523l-17.981 7.344h35.987l-18.006-7.344Z"
   />
   <path
      fill="#fff"
      d="M160.544 157.295h-35.988c-.155 0-.258-.102-.258-.255 0-.154.103-.256.258-.256h35.988c.155 0 .258.102.258.256 0 .153-.103.255-.258.255ZM170.413 128.229a2.184 2.184 0 0 1-2.196 2.175h-51.153a2.184 2.184 0 0 1-2.196-2.175c0-1.202.982-2.174 2.196-2.174h51.153c1.214 0 2.196.972 2.196 2.174Z"
   />
   <path
      fill="#7BBEE4"
      d="M166.641 128.229a2.184 2.184 0 0 1-2.196 2.175h-47.381a2.184 2.184 0 0 1-2.196-2.175c0-1.202.982-2.174 2.196-2.174h47.381c1.214 0 2.196.972 2.196 2.174Z"
   />
   <path
      fill="#000"
      d="M131.842 128.229a2.184 2.184 0 0 1-2.196 2.175h-12.582a2.184 2.184 0 0 1-2.196-2.175c0-1.202.982-2.174 2.196-2.174h12.582c1.214 0 2.196.972 2.196 2.174Z"
   />
   <path
      fill="#fff"
      d="M146.88 149.513c3.45-2.313 4.354-6.958 2.018-10.375-2.336-3.417-7.026-4.311-10.476-1.998-3.45 2.313-4.354 6.958-2.018 10.375 2.336 3.417 7.026 4.311 10.476 1.998Z"
   />
   <path
      fill="#027CD5"
      d="M142.045 147.675c-.078 0-.156-.051-.207-.102l-2.971-4.094c-.078-.102-.052-.281.052-.358.103-.077.284-.051.361.051l2.739 3.812 4.392-6.063c.077-.103.232-.154.361-.052.104.077.155.231.052.359l-4.599 6.345c-.025.051-.103.102-.18.102Z"
   />
   <path
      fill="#fff"
      d="m46.653 161.14-2.11 14.137-1.196.066s2.697 8.439 9.744 9.613c7.025 1.174 6.307-6.938 6.307-6.938l-4.132-1.871 1.414-11.396-10.027-3.611Z"
   />
   <path
      fill="#000"
      d="M55.288 176.365h-.021a.255.255 0 0 1-.196-.239l1.392-11.223-9.614-3.458-2.066 13.876c-.022.109-.13.196-.239.174-.109-.022-.196-.13-.174-.239l2.11-14.137c0-.066.043-.131.109-.153a.212.212 0 0 1 .195-.021l10.027 3.61a.268.268 0 0 1 .152.239l-1.414 11.397c-.065.087-.174.174-.26.174Z"
   />
   <path
      fill="#000"
      d="M48.072 147.373c1.123.218 2.028.788 2.63 1.685.302-1.359 1.206-2.554 2.385-3.342 1.15-.788 2.548-1.196 3.945-1.359 3.07-.353 6.33.598 8.522 2.744 2.192 2.147 3.206 5.517 2.247 8.424-.96 2.908-3.973 5.109-7.042 4.864.356 1.685.603 3.424.329 5.109-.274 1.684-1.124 3.369-2.576 4.293-1.644 1.06-3.836 1.005-5.645.272-1.808-.734-3.288-2.093-4.603-3.533-.767-.842-1.452-1.739-2.192-2.608-.384-.435-.74-.897-1.151-1.305-.274-.271-.603-.462-.795-.788-1.096-1.739-1.863-2.962-1.562-6.331.138-1.223 1.864-8.831 5.508-8.125Z"
   />
   <path
      fill="#fff"
      d="M58.446 153.854s1.64 4.34 2.086 7.486c.111.759-.278 1.518-.973 1.898-1.113.624-3.171 1.329-6.453.949-5.424-.624-5.48-4.61-5.758-6.183-.334-1.953.584-3.472 3.783-2.685 4.506 1.112 7.315-1.465 7.315-1.465ZM45.688 160.532s-.653-1.262-1.088-2.567c0 0-2.653-1.392-3.066.74-.414 2.131 2.805 3.936 4.154 1.827Z"
   />
   <path
      fill="#000"
      d="M44.074 161.684c.652 0 1.348-.283 1.827-1.044a.197.197 0 0 0 0-.217c0-.022-.653-1.262-1.088-2.545-.022-.044-.065-.109-.108-.131-.066-.043-1.545-.782-2.545-.304-.435.217-.718.609-.827 1.196-.239 1.305.696 2.414 1.762 2.828.305.152.653.217.979.217Zm1.392-1.174c-.5.717-1.327.935-2.197.587-.87-.348-1.696-1.283-1.5-2.349.086-.457.282-.74.587-.892.63-.304 1.652.044 2.087.261.37 1.066.87 2.066 1.023 2.393Z"
   />
   <path
      fill="#000"
      d="M44.747 160.271a.196.196 0 0 0 .152-.066.21.21 0 0 0 0-.304 2.331 2.331 0 0 0-2-.609c-.11.022-.196.13-.175.239.022.109.13.196.24.174a2.028 2.028 0 0 1 1.63.5.234.234 0 0 0 .153.066ZM66.246 270.475c.522-11.875 2.523-43.673 2.544-43.869l-46 1.806L6.5 270.649l59.746-.174Z"
   />
   <path
      fill="#fff"
      d="M47.41 270.758c-.13-.022-.217-.109-.217-.239l1.588-17.465c0-.109.087-.196.196-.196.043 0 4.045-.239 5.763-3.175.066-.109.196-.131.305-.087.109.065.13.196.087.304-1.653 2.806-5.09 3.306-5.938 3.393l-1.566 17.291c0 .087-.108.174-.217.174Z"
   />
   <path fill="#7BBEE4" d="m20.86 208.642 1.913 19.77 16.856.196-18.77-19.966Z" />
   <path
      fill="#7BBEE4"
      d="M147.57 173.147c-.522-1.305-2.001-1.914-3.327-1.5-2.589.804-7.439 1.261-14.203 1.392-8.656.152-11.527 5.546-13.985 11.266-2.457 5.72-6.111 14.485-15.246 13.202-5.699-.805-13.811-8.2-19.118-13.659a22.402 22.402 0 0 0-13.985-6.677l-11.005-1.022-.805-3.132-2.153 2.414-1.544-1.914-8.417-2.893-1.74 4.807s-9.548-.718-18.922 3.197c-12.05 5.046-9.113 22.75-5.46 29.558 3.654 6.807 10.18 29.884 28.993 29.34 18.813-.544 29.492-19.64 29.492-19.64l22.641 2.066c26.991-.804 33.821-26.86 35.3-34.995a3.434 3.434 0 0 1 2.675-2.762c8.917-1.848 10.896-7.612 10.896-7.612.196-.413.131-.935-.087-1.436Z"
   />
   <path
      fill="#fff"
      d="M132.868 190.459c.543-1.892.978-3.74 1.239-5.459.218-1.392 1.305-2.479 2.676-2.762 8.917-1.849 10.896-7.612 10.896-7.612.196-.479.13-1.001-.065-1.501-.522-1.305-2.001-1.914-3.328-1.501-2.588.805-7.438 1.262-14.202 1.392-4.894.087-8.396 1.479-10.331 4.263-.87 1.262-1.675 2.806-2.502 4.481l15.617 8.699Z"
   />
   <path
      fill="#000"
      d="M132.867 190.677h-.065a.235.235 0 0 1-.152-.261 41.8 41.8 0 0 0 1.24-5.437c.217-1.457 1.37-2.632 2.827-2.936 8.7-1.784 10.701-7.417 10.723-7.46.174-.392.152-.827-.066-1.349-.478-1.153-1.827-1.762-3.066-1.37-2.567.805-7.373 1.283-14.268 1.392-4.872.087-8.287 1.479-10.157 4.154-.913 1.305-1.762 2.98-2.501 4.437-.044.109-.174.152-.283.087-.109-.044-.152-.174-.087-.283.74-1.479 1.61-3.175 2.523-4.502 1.936-2.806 5.481-4.263 10.505-4.35 6.851-.109 11.593-.565 14.137-1.37 1.457-.457 3.045.261 3.611 1.631.261.631.282 1.175.065 1.653-.022.044-2.088 5.894-11.049 7.743-1.305.261-2.305 1.305-2.501 2.588a41.403 41.403 0 0 1-1.24 5.481.21.21 0 0 1-.196.152Z"
   />
   <path
      fill="#fff"
      d="M50.894 180.302h-.065a36.958 36.958 0 0 1-8.874-3.871c-.108-.065-.13-.196-.065-.304.065-.109.196-.131.304-.066a37.585 37.585 0 0 0 8.57 3.763l.652-1.914a.218.218 0 0 1 .283-.131.218.218 0 0 1 .13.283l-.717 2.11a.239.239 0 0 1-.218.13ZM55.439 179.52c-.044 0-.087-.022-.13-.044a.233.233 0 0 1-.044-.304l1.435-1.914c.066-.087.218-.109.305-.044.087.066.109.218.043.305l-1.435 1.914a.198.198 0 0 1-.174.087Z"
   />
   <path
      fill="#000"
      d="M137.936 178.736c-.109 0-.196-.087-.218-.196-.022-.108.065-.217.196-.239a29.133 29.133 0 0 0 8.83-2.523c0-.021 0-.043.022-.065.043-.109.174-.174.283-.13l.13.043c.087.022.131.109.131.196 0 .087-.044.174-.131.196a29.787 29.787 0 0 1-9.222 2.675c0 .043-.021.043-.021.043Z"
   />
   <path
      fill="#fff"
      d="m61.27 205.423-6.417-26.447-.109-2.784-1.022.087-1.414.109.762 2.914 4.263 28.622 3.936-2.501ZM45.61 216.191a.23.23 0 0 1-.195-.109L37.106 200.4a4.49 4.49 0 0 1-.26-3.588c.043-.109.173-.174.282-.131.109.044.174.174.13.283-.37 1.066-.304 2.24.24 3.241l8.308 15.681c.065.109.022.239-.087.305h-.109Z"
   />
   <path
      fill="#fff"
      d="M44.022 217.604a.198.198 0 0 1-.174-.087c-.065-.087-.065-.239.044-.304.13-.109 14.158-11.223 23.728-14.768.109-.044.24.021.283.13.043.109-.022.239-.13.283-9.505 3.523-23.468 14.594-23.62 14.703-.044.021-.087.043-.131.043ZM28.015 227.979a.23.23 0 0 1-.196-.109l-7.83-14.028c-.065-.109-.021-.24.087-.305.11-.065.24-.022.305.087l7.83 14.029c.065.108.022.239-.087.304-.022.022-.066.022-.109.022Z"
   />
   <path
      fill="#000"
      d="M78.474 226.389v-4.284c0-1.153.935-2.088 2.088-2.088H97.33c1.153 0 2.088.935 2.088 2.088v4.284h2.588v-4.284a4.682 4.682 0 0 0-4.676-4.676H80.56a4.682 4.682 0 0 0-4.675 4.676v4.284h2.588Z"
   />
   <path
      fill="#fff"
      d="M78.69 228.304h-2.827a2.562 2.562 0 0 1-2.544-2.545 2.562 2.562 0 0 1 2.544-2.545h2.828a2.562 2.562 0 0 1 2.544 2.545 2.548 2.548 0 0 1-2.544 2.545Z"
   />
   <path
      fill="#000"
      d="M78.69 228.521h-2.827a2.766 2.766 0 0 1-2.762-2.762 2.766 2.766 0 0 1 2.762-2.762h2.828a2.766 2.766 0 0 1 2.762 2.762 2.766 2.766 0 0 1-2.763 2.762Zm-2.827-5.089a2.33 2.33 0 0 0-2.327 2.327 2.33 2.33 0 0 0 2.327 2.327h2.828a2.33 2.33 0 0 0 2.327-2.327 2.33 2.33 0 0 0-2.328-2.327h-2.827Z"
   />
   <path
      fill="#fff"
      d="M102.025 228.304h-2.827a2.562 2.562 0 0 1-2.545-2.545 2.562 2.562 0 0 1 2.545-2.545h2.827a2.563 2.563 0 0 1 2.545 2.545 2.548 2.548 0 0 1-2.545 2.545Z"
   />
   <path
      fill="#000"
      d="M102.025 228.521h-2.828a2.766 2.766 0 0 1-2.762-2.762 2.766 2.766 0 0 1 2.763-2.762h2.827a2.766 2.766 0 0 1 2.762 2.762 2.766 2.766 0 0 1-2.762 2.762Zm-2.828-5.089a2.33 2.33 0 0 0-2.327 2.327 2.33 2.33 0 0 0 2.328 2.327h2.827a2.33 2.33 0 0 0 2.327-2.327 2.33 2.33 0 0 0-2.327-2.327h-2.828Z"
   />
   <path fill="#fff" d="M126.3 270.453H61.53l4.132-45.151h54.396l6.242 45.151Z" />
   <path
      fill="#000"
      d="M126.3 270.671H61.53a.196.196 0 0 1-.153-.065.247.247 0 0 1-.065-.174l4.133-45.173c0-.109.108-.196.217-.196h54.396c.108 0 .195.087.217.196l6.22 45.173c0 .065 0 .131-.043.174a.196.196 0 0 1-.152.065Zm-64.531-.435h64.27l-6.155-44.738H65.858l-4.089 44.738Z"
   />
   <path
      fill="#000"
      d="M122.494 270.672c-.108 0-.195-.087-.217-.196l-3.154-24.903c-.022-.109.065-.218.196-.24.109-.021.217.066.239.196l3.154 24.903c.022.109-.065.218-.196.24h-.022Z"
   />
   <path fill="#fff" d="M118.338 270.453H53.59l5.133-45.151h55.483l4.132 45.151Z" />
   <path
      fill="#000"
      d="M118.339 270.671H53.59c-.065 0-.13-.021-.152-.065a.17.17 0 0 1-.044-.174l5.155-45.173c.022-.109.109-.196.218-.196h55.483c.108 0 .195.087.217.196l4.133 45.173a.245.245 0 0 1-.066.174c-.087.044-.13.065-.195.065Zm-64.51-.435h64.27l-4.089-44.738H58.919l-5.09 44.738Z"
   />
   <path
      fill="#000"
      d="M113.012 246.683H56.789c-.13 0-.217-.087-.217-.218 0-.13.087-.217.217-.217h55.983l-.696-9.701c0-.13.087-.217.196-.239.131 0 .218.087.239.196l.718 9.918c0 .065-.022.108-.065.174-.022.065-.087.087-.152.087Z"
   />
   <path fill="#fff" d="M91.282 245.55H80.886v4.807h10.396v-4.807Z" />
   <path
      fill="#000"
      d="M91.304 250.574H80.908c-.13 0-.217-.087-.217-.218v-4.806c0-.131.087-.218.217-.218h10.396c.13 0 .218.087.218.218v4.806a.218.218 0 0 1-.218.218Zm-10.2-.435h9.961v-4.372h-9.961v4.372Z"
   />
   <path
      fill="#fff"
      d="m67.689 202.64 5.198-1.653c13.528-3.545 19.813 3.915 22.989 13.506.587 1.762 1.087 3.35 1.413 4.568.392 1.413-1.043 2.631-2.37 2.022-1.11-.522-2.262-1.718-2.85-4.263 0 0 1.11 5.177-1.152 5.177-2.001 0-3.154-3.197-3.154-3.197s.61 3.197-1.153 3.197c-1.935 0-3.218-3.48-3.218-3.48s.848 3.48-.892 3.741c-.914.13-1.784-.413-2.871-2.327a3.993 3.993 0 0 0-3.48-2.023 5.085 5.085 0 0 1-4.807-3.436L67.69 202.64Z"
   />
   <path
      fill="#000"
      d="M82.282 222.497c-.98 0-1.85-.783-2.806-2.457a3.818 3.818 0 0 0-3.306-1.914 5.314 5.314 0 0 1-5.024-3.589c-.044-.109.022-.239.13-.283.11-.043.24.022.283.131a4.868 4.868 0 0 0 4.611 3.306 4.24 4.24 0 0 1 3.676 2.131c1.218 2.132 2.066 2.306 2.653 2.219a.867.867 0 0 0 .61-.37c.63-.914.108-3.067.108-3.089-.022-.108.043-.217.152-.261.109-.043.218.022.261.131.022.043 1.24 3.328 3.002 3.328.282 0 .5-.087.652-.283.522-.631.37-2.132.283-2.654a.2.2 0 0 1 .152-.239c.109-.022.218.022.261.131.022.021 1.131 3.066 2.958 3.066.304 0 .544-.108.718-.348.76-.957.413-3.632.195-4.589-.021-.108.044-.239.174-.261.11-.021.24.044.261.174.479 2.11 1.392 3.502 2.74 4.111a1.418 1.418 0 0 0 1.589-.218c.456-.391.63-.978.456-1.544a169.521 169.521 0 0 0-1.413-4.545c-3.937-11.963-11.375-16.334-22.729-13.376l-5.176 1.653c-.109.043-.24-.022-.283-.153-.043-.108.022-.239.153-.282l5.198-1.653c6.307-1.653 11.549-1.023 15.572 1.87 3.35 2.393 5.85 6.264 7.678 11.788.63 1.893 1.109 3.437 1.435 4.568.218.739-.022 1.5-.609 2.001-.587.5-1.37.609-2.066.282-.957-.456-1.718-1.261-2.284-2.392.044 1.044-.043 2.197-.565 2.827-.261.327-.63.501-1.066.501-1.327 0-2.284-1.262-2.849-2.241 0 .631-.109 1.349-.478 1.784-.24.304-.588.457-.98.457-1.26 0-2.218-1.262-2.805-2.306.044.696-.022 1.479-.37 1.979a1.22 1.22 0 0 1-.891.566c-.087.043-.174.043-.261.043Z"
   />
   <path
      fill="#000"
      d="M92.046 216.951a.212.212 0 0 1-.218-.174 22.193 22.193 0 0 0-1.261-3.915c-.043-.109 0-.239.109-.283.108-.043.239 0 .282.109a23.196 23.196 0 0 1 1.284 4.002c.021.109-.044.239-.174.261h-.022ZM87.716 218.908a.212.212 0 0 1-.217-.174 69.888 69.888 0 0 0-1.283-5.524c-.044-.109.043-.24.152-.261.109-.044.24.043.261.152a60.785 60.785 0 0 1 1.305 5.568c.022.108-.065.239-.174.261-.022-.022-.044-.022-.044-.022ZM83.41 218.757c-.086 0-.195-.065-.217-.174-.26-1.022-.609-2.132-.935-3.197-.174-.544-.348-1.066-.478-1.566a.193.193 0 0 1 .152-.261.192.192 0 0 1 .26.152c.153.5.305 1.022.48 1.566.347 1.066.695 2.197.956 3.219.022.109-.043.239-.152.261-.022-.022-.043 0-.065 0Z"
   />
   <path
      fill="#fff"
      d="M70.25 224.302a.237.237 0 0 1-.152-.065c-4.958-4.437-8.025-10.766-8.417-17.421 0-.131.087-.218.196-.24.13 0 .218.087.24.196.39 6.525 3.392 12.767 8.264 17.117a.232.232 0 0 1 .022.304c-.022.087-.087.109-.152.109ZM128.538 197.05a.305.305 0 0 1-.13-.044 89.688 89.688 0 0 0-13.659-8.525c-.108-.044-.152-.196-.087-.283.044-.109.196-.152.283-.087a90.513 90.513 0 0 1 13.724 8.569c.087.065.109.218.043.305a.247.247 0 0 1-.174.065Z"
   />
</svg>
