<svg xmlns="http://www.w3.org/2000/svg" fill="none" viewBox="0 0 200 272">
   <rect width="200" height="272" fill="#F5FBFF" rx="8" />
   <path
      fill="#fff"
      d="M179.166 26.92c.021.104.041.186.062.27a9.619 9.619 0 0 0-2.377 1.55.93.93 0 0 0-.227-.166 2.31 2.31 0 0 0-3.225.62 2.309 2.309 0 0 0 .62 3.225c.083.062.166.103.248.144a9.577 9.577 0 0 0-.579 2.77c-.103 0-.186.02-.289.041a2.335 2.335 0 0 0-1.86 2.708 2.336 2.336 0 0 0 2.708 1.86c.103-.02.186-.041.268-.062.393.868.93 1.674 1.55 2.377a.907.907 0 0 0-.165.227 2.309 2.309 0 0 0 .62 3.225 2.31 2.31 0 0 0 3.225-.62c.062-.083.103-.166.144-.248.868.33 1.819.517 2.77.579 0 .103.021.186.041.289a2.336 2.336 0 0 0 2.708 1.86 2.335 2.335 0 0 0 1.86-2.708 4.51 4.51 0 0 0-.062-.268 9.6 9.6 0 0 0 2.377-1.55.917.917 0 0 0 .228.165 2.308 2.308 0 0 0 3.224-.62 2.308 2.308 0 0 0-.868-3.37 9.576 9.576 0 0 0 .579-2.769c.103 0 .186-.02.289-.041a2.335 2.335 0 0 0 1.86-2.708 2.335 2.335 0 0 0-2.707-1.86c-.104.02-.186.041-.269.062a9.624 9.624 0 0 0-1.55-2.377.91.91 0 0 0 .165-.228 2.308 2.308 0 0 0-.62-3.224 2.308 2.308 0 0 0-3.224.62 1.52 1.52 0 0 0-.145.248 9.585 9.585 0 0 0-2.77-.579c0-.103-.02-.186-.041-.29a2.336 2.336 0 0 0-2.708-1.86 2.335 2.335 0 0 0-1.86 2.708Zm8.309 8.165c.434 2.335-1.095 4.61-3.431 5.043-2.336.434-4.609-1.095-5.043-3.43-.435-2.337 1.095-4.61 3.431-5.044 2.335-.455 4.588 1.074 5.043 3.43Z"
   />
   <path
      fill="#fff"
      d="M95.198 188.413h75.981c4.94 0 8.992-4.052 8.992-8.992l.02-153.223c0-4.94-4.051-8.991-8.991-8.991H95.219c-4.94 0-8.991 4.051-8.991 8.991l-.021 153.203c0 4.96 4.051 9.012 8.991 9.012Z"
   />
   <path
      fill="#000"
      d="M171.179 188.619H95.198a9.07 9.07 0 0 1-6.49-2.707A9.156 9.156 0 0 1 86 179.421l.02-153.223c0-5.064 4.135-9.198 9.199-9.198H171.2c2.439 0 4.754.95 6.49 2.708a9.154 9.154 0 0 1 2.708 6.49l-.021 153.223c.021 5.064-4.113 9.198-9.198 9.198ZM95.219 17.393c-4.837 0-8.785 3.948-8.785 8.784l-.02 153.224c0 2.335.909 4.547 2.583 6.201 1.674 1.674 3.865 2.583 6.2 2.583h75.982c4.837 0 8.785-3.948 8.785-8.784l.02-153.224a8.66 8.66 0 0 0-2.583-6.2c-1.675-1.675-3.865-2.584-6.201-2.584H95.219Z"
   />
   <path
      fill="#000"
      d="M168.762 183.184H97.638a6.927 6.927 0 0 1-4.96-2.067 7.012 7.012 0 0 1-2.068-4.961l.021-147.188c0-3.865 3.142-7.028 7.028-7.028h71.124c1.86 0 3.637.724 4.96 2.067a7.01 7.01 0 0 1 2.067 4.961l-.02 147.188c0 3.865-3.163 7.028-7.028 7.028ZM97.659 22.374c-3.638 0-6.615 2.956-6.615 6.615l-.02 147.188c0 1.756.682 3.41 1.943 4.671a6.552 6.552 0 0 0 4.671 1.943h71.124c3.638 0 6.614-2.956 6.614-6.614l.021-147.188c0-1.757-.682-3.41-1.943-4.672a6.553 6.553 0 0 0-4.671-1.943H97.659Z"
   />
   <path
      fill="#000"
      d="M142.014 27.21h-18.685c-.124 0-.207-.082-.207-.206 0-.124.083-.207.207-.207h18.685c.124 0 .207.083.207.207a.207.207 0 0 1-.207.206Z"
   />
   <path
      fill="#DFF3FE"
      d="m169.463 43.313-.02 125.546c0 3.866-3.163 7.028-7.028 7.028h-58.288c-3.865 0-7.028-3.162-7.028-7.028l.021-125.546c0-3.866 3.162-7.028 7.028-7.028h58.288c3.865 0 7.027 3.162 7.027 7.028Z"
   />
   <path
      fill="#fff"
      d="M169.567 91.556V83.99l-8.226-8.992c-.558-.62-.889-1.57-.889-2.625V36.037l-3.245-.02v34.456l-3.886-4.258c-.744-.806-1.674-1.261-2.646-1.261l-39.913-.103V35.934h-3.245v28.917l-10.665-.021v7.565l10.665.02v57.028H96.852v4.775H144.288c1.22 0 2.191 1.364 2.191 3.121v7.565l-2.769 2.625c-1.013.951-2.171 1.467-3.349 1.467h-19.346l-24.163-.041v7.565l13.414.021v19.615h5.106v-18.21c0-.764.454-1.405.971-1.405h24.204c1.054 0 2.088-.455 2.977-1.302l2.955-2.791v10.872c0 1.447.786 2.584 1.799 2.584h8.908v10.293l3.245.042v-10.335h9.116v-4.775h-9.116V139.24l9.116-8.64v-7.565l-9.116 8.64V81.593l9.136 9.963Zm-41.111 37.887h-17.694V72.436l17.694.042v56.965Zm28.73 31.707h-6.49c-.537 0-.971-.599-.971-1.385v-10.376l7.461-7.069v18.83Zm0-29.289c0 1.799-.661 3.514-1.736 4.527l-5.725 5.436v-7.751c0-2.604-1.427-4.651-3.246-4.63h-14.778V72.478l18.52.041c1.24 0 2.418.558 3.389 1.612l3.576 3.907v53.823Z"
   />
   <path
      fill="#7BBEE4"
      d="M137.179 41.452c-11.513 0-20.835 9.343-20.794 20.855.042 20.07 20.939 41.216 20.939 41.216s20.793-21.331 20.752-41.215c-.021-11.534-9.384-20.856-20.897-20.856Z"
   />
   <path
      fill="#fff"
      d="M148.672 75.023c6.253-6.258 6.235-16.414-.039-22.683-6.275-6.27-16.43-6.278-22.683-.02-6.253 6.259-6.236 16.414.038 22.683 6.275 6.27 16.431 6.278 22.684.02Z"
   />
   <path fill="#fff" d="M142.685 56.683h-16.21v13.798h16.21V56.683Z" />
   <path
      fill="#000"
      d="M142.685 70.544h-16.211c-.037 0-.063-.025-.063-.062V56.684a.06.06 0 0 1 .063-.063h16.211a.06.06 0 0 1 .063.063v13.798c0 .037-.026.063-.063.063Zm-16.148-.125h16.085V56.747h-16.085v13.672Z"
   />
   <path fill="#fff" d="M148.258 56.693h-7.395V70.49h7.395V56.693Z" />
   <path
      fill="#000"
      d="M148.258 70.554h-7.395c-.038 0-.063-.025-.063-.063V56.693c0-.037.025-.062.063-.062h7.395c.038 0 .063.025.063.062v13.798c0 .038-.025.063-.063.063Zm-7.333-.126h7.27V56.756h-7.27v13.672Z"
   />
   <path
      fill="#DFF3FE"
      d="m132.731 56.78-.006 7.841h2.074l-.007-7.848-2.061.007ZM143.954 56.773v7.842h1.59v-7.848l-1.59.006Z"
   />
   <path
      fill="#7BBEE4"
      d="M153.444 131.385c-5.333 0-9.653 4.32-9.632 9.653.021 9.301 9.694 19.098 9.694 19.098s9.632-9.88 9.611-19.098c-.02-5.333-4.34-9.653-9.673-9.653Z"
   />
   <path
      fill="#fff"
      d="M157.846 145.987c2.411-2.416 2.4-6.336-.024-8.754-2.424-2.419-6.344-2.421-8.755-.005-2.411 2.416-2.4 6.336.025 8.754 2.424 2.419 6.344 2.421 8.754.005Z"
   />
   <path
      fill="#7BBEE4"
      d="M111.092 108.999c-5.332 0-9.652 4.32-9.632 9.653.021 9.301 9.694 19.098 9.694 19.098s9.632-9.88 9.612-19.098c0-5.312-4.341-9.653-9.674-9.653Z"
   />
   <path
      fill="#fff"
      d="M115.49 123.611c2.412-2.414 2.404-6.334-.019-8.754s-6.343-2.425-8.755-.01c-2.412 2.415-2.403 6.335.02 8.755 2.422 2.42 6.342 2.424 8.754.009ZM10.94 225.238c-.064.233-8.867 23.821.827 35.466 9.694 11.646 32.772 3.861 32.772 3.861l-4.942-34.448-28.657-4.879Z"
   />
   <path
      fill="#000"
      d="M28.736 267.322c-7.679 0-13.576-2.206-17.118-6.491-8.994-10.818-2.333-31.542-.89-35.572.02-.043.02-.085.02-.085.043-.106.128-.17.234-.148l28.657 4.878c.085.022.17.085.17.17l4.942 34.448c.021.106-.042.191-.148.233-.064.022-5.876 1.973-12.791 2.461a51.11 51.11 0 0 1-3.076.106Zm-17.648-41.851c-.594 1.697-2.46 7.382-3.267 13.957-1.145 9.355.255 16.461 4.115 21.127 4.942 5.961 13.512 6.661 19.833 6.216 6.215-.446 11.54-2.058 12.537-2.376l-4.88-34.109-28.338-4.815Z"
   />
   <path
      fill="#7BBEE4"
      d="m46.448 234.423-38.372-4.816s4.624-12.345 9.121-23.375a24.432 24.432 0 0 1 22.676-15.23c12.366.021 30.12.466 46.878 2.376 10.987 1.251 20.363 8.548 24.245 18.899a81.446 81.446 0 0 1 3.415 11.688l-38.712 12.961-29.25-2.503Z"
   />
   <path
      fill="#fff"
      d="M96.593 259.6s11.687 1.613 16.714-3.245c5.028-4.857 10.331-35.381 10.331-35.381H105.12L96.592 259.6Z"
   />
   <path
      fill="#000"
      d="M101.068 260.088c-2.482 0-4.306-.254-4.497-.275-.063 0-.106-.043-.148-.085-.043-.043-.043-.106-.043-.17l8.528-38.627a.206.206 0 0 1 .212-.169h18.518c.063 0 .127.021.169.084a.165.165 0 0 1 .043.17c-.212 1.252-5.388 30.63-10.394 35.488-3.076 2.99-8.527 3.584-12.388 3.584Zm-4.221-.657c1.654.191 11.794 1.145 16.312-3.224 4.667-4.54 9.715-32.094 10.224-35.021h-18.094l-8.442 38.245Z"
   />
   <path fill="#fff" d="M103.148 204.853H35.121v57.166h68.027v-57.166Z" />
   <path
      fill="#000"
      d="M103.127 262.231H35.1c-.127 0-.212-.085-.212-.212v-29.06c0-.128.085-.212.212-.212s.212.084.212.212v28.848h67.602V235.78c0-.127.085-.212.213-.212.127 0 .212.085.212.212v26.26c0 .106-.085.191-.212.191Z"
   />
   <path
      fill="#000"
      d="M84.99 255.953c-.127 0-.212-.085-.212-.213v-48.808c0-.127.085-.212.212-.212.128 0 .212.085.212.212v48.808a.213.213 0 0 1-.212.213ZM62.57 222.501h-22.4c-.127 0-.212-.085-.212-.212V210.58c0-.127.085-.212.212-.212h22.4c.127 0 .212.085.212.212v11.709a.212.212 0 0 1-.212.212Zm-22.167-.424H62.38v-11.285H40.403v11.285Z"
   />
   <path
      fill="#000"
      d="M43.31 220.825c-.127 0-.212-.085-.212-.212v-8.358c0-.127.085-.212.212-.212.128 0 .213.085.213.212v8.358a.212.212 0 0 1-.213.212ZM46.534 220.825c-.127 0-.212-.085-.212-.212v-8.358c0-.127.085-.212.212-.212.128 0 .212.085.212.212v8.358a.212.212 0 0 1-.212.212ZM49.78 220.825c-.127 0-.211-.085-.211-.212v-8.358c0-.127.084-.212.212-.212.127 0 .212.085.212.212v8.358a.228.228 0 0 1-.212.212ZM53.005 220.825c-.127 0-.212-.085-.212-.212v-8.358c0-.127.085-.212.212-.212s.212.085.212.212v8.358a.228.228 0 0 1-.212.212ZM56.229 220.825c-.128 0-.212-.085-.212-.212v-8.358c0-.127.084-.212.212-.212.127 0 .212.085.212.212v8.358a.212.212 0 0 1-.212.212ZM59.453 220.825c-.128 0-.213-.085-.213-.212v-8.358c0-.127.085-.212.213-.212.127 0 .212.085.212.212v8.358a.212.212 0 0 1-.212.212Z"
   />
   <path fill="#fff" d="M148.796 269.147H113.16l-18.752-48.173h35.636l18.752 48.173Z" />
   <path
      fill="#000"
      d="M148.795 269.358h-35.636c-.084 0-.169-.063-.19-.127l-18.752-48.172c-.02-.064-.02-.149.022-.191a.192.192 0 0 1 .17-.085h35.635c.085 0 .17.064.191.127l18.751 48.173c.022.063.022.148-.021.19-.042.043-.106.085-.17.085Zm-35.487-.424h35.169l-18.581-47.748h-35.17l18.582 47.748Z"
   />
   <path
      fill="#DFF3FE"
      d="M126.161 232.196h-17.649l-1.378-3.522h17.648l1.379 3.522ZM135.813 248.423h-25.03l-4.836-12.642h25.03l4.836 12.642Z"
   />
   <path
      fill="#fff"
      d="M105.462 220.974c2.461-1.739 4.943-3.5 7.785-4.497 2.843-.997 6.109-1.167 8.761.255 1.357-.573 3.054-.212 4.072.848 2.843-.615 6.024 1.082 7.085 3.818 1.061 2.737-.106 6.13-2.63 7.615-.424.255-.912.467-1.4.467-.509 0-1.018-.233-1.252-.679-.763.573-1.888.594-2.651.021-.361.319-.933.319-1.379.128-.445-.191-.785-.573-1.124-.934-1.761-1.994-3.267-4.603-4.412-7.021h-12.855v-.021Z"
   />
   <path
      fill="#000"
      d="M129.113 229.671c-.53 0-1.018-.234-1.315-.594a2.565 2.565 0 0 1-2.588 0c-.446.297-1.061.254-1.485.064-.488-.213-.848-.616-1.188-.997-1.506-1.719-2.991-4.052-4.391-6.937H105.44c-.084 0-.169-.063-.212-.148-.021-.085 0-.191.085-.234 2.44-1.718 4.964-3.521 7.849-4.539 3.181-1.124 6.406-1.039 8.845.212 1.4-.53 3.054-.191 4.115.849 2.906-.573 6.13 1.188 7.212 3.966 1.103 2.8-.127 6.343-2.715 7.87-.552.318-1.039.488-1.506.488Zm-1.23-1.124h.042c.064.021.106.063.149.106.19.381.678.572 1.06.572s.806-.148 1.294-.424c2.418-1.421 3.564-4.73 2.545-7.339-1.018-2.63-4.093-4.264-6.851-3.67a.172.172 0 0 1-.191-.063c-.954-.997-2.566-1.337-3.839-.807a.285.285 0 0 1-.191 0c-2.355-1.251-5.473-1.336-8.591-.233-2.609.933-4.942 2.503-7.191 4.094h12.176c.085 0 .148.042.191.127 1.4 2.906 2.885 5.261 4.391 6.958.318.36.636.7 1.039.891.361.169.849.191 1.167-.085.063-.064.191-.064.254-.021.7.488 1.718.488 2.418-.022.022-.063.064-.084.128-.084Z"
   />
   <path
      fill="#000"
      d="M125.4 228.144h-.021c-.106-.022-.191-.128-.17-.234.594-4.2-.318-7.7-2.736-10.393-.085-.085-.064-.213.021-.297.085-.085.212-.064.297.021 2.503 2.8 3.457 6.406 2.842 10.733-.042.085-.127.17-.233.17ZM128.242 228.144h-.063c-.106-.043-.17-.149-.149-.255.934-3.266.361-6.915-1.548-9.757-.064-.106-.043-.234.063-.297.107-.064.234-.043.297.064 1.973 2.927 2.567 6.702 1.591 10.096a.204.204 0 0 1-.191.149ZM131.509 227.635h-.042a.22.22 0 0 1-.17-.255c.467-2.397.7-5.727-.827-8.103-.064-.106-.043-.233.064-.297.106-.063.233-.042.296.064 1.591 2.482 1.358 5.939.891 8.421a.207.207 0 0 1-.212.17Z"
   />
   <path
      fill="#fff"
      d="M24.685 245.623s53.518-2.312 55.066-.658c1.549 1.655.827 3.309-7.827 4.879 0 0 3.288 8.803 18.03 12.175h5.876s-1.528 4.688-9.355 5.091c-6.681.34-46.093 1.443-57.484 1.761-3.966.106-7.912-.806-11.348-2.8-4.412-2.524-8.591-6.682-10.033-15.442l17.075-5.006Z"
   />
   <path
      fill="#000"
      d="M28.333 269.104c-3.86 0-7.594-.976-10.818-2.821-3.585-2.058-8.549-5.918-10.118-15.591-.022-.106.063-.233.17-.233.105-.022.233.063.233.169 1.548 9.503 6.406 13.279 9.927 15.294 3.351 1.909 7.233 2.885 11.242 2.758 11.815-.34 50.845-1.422 57.484-1.761 7.573-.382 9.164-4.9 9.164-4.942a.213.213 0 0 1 .275-.128c.107.043.17.149.128.276-.064.191-1.676 4.836-9.546 5.24-6.66.339-45.69 1.442-57.505 1.76-.19-.021-.424-.021-.636-.021Z"
   />
   <path
      fill="#000"
      d="M95.829 262.232H89.91c-7.658-1.761-12.197-5.006-14.636-7.403-2.673-2.631-3.5-4.815-3.543-4.9-.02-.064-.021-.128.022-.17.02-.064.084-.085.148-.106 5.09-.933 7.87-1.994 8.251-3.118.128-.403-.042-.87-.551-1.421-.297-.297-3.606-.891-28-.234-13.406.361-26.77.934-26.896.955a.213.213 0 0 1-.213-.212c0-.128.085-.212.213-.212.127 0 13.533-.573 26.96-.955 27.236-.742 28.02.085 28.275.361.615.657.828 1.272.637 1.845-.425 1.315-3.076 2.376-8.315 3.352.657 1.421 4.666 8.802 17.754 11.815h5.854c.128 0 .213.084.213.212-.043.106-.128.191-.255.191ZM57.372 170.638l-10.182 7.573c-1.57 1.167-1.188 3.649.679 4.221.509.149 1.103.276 1.782.318-.213 1.613 1.039 3.076 2.672 3.076 2.46.021 5.685.043 6.767-.042l5.154-12.579-6.872-2.567Z"
   />
   <path
      fill="#fff"
      d="m57.86 175.772-1.846 16.142s2.821 4.221 9.779 4.37c6.957.148 4.709-4.009 4.709-4.009l.466-9.991c0 .021-7.02-7.488-13.109-6.512Z"
   />
   <path
      fill="#000"
      d="M56.014 192.126h-.021a.248.248 0 0 1-.191-.233l1.845-16.164c.022-.085.085-.169.17-.191 6.13-.975 13.024 6.3 13.3 6.597a.205.205 0 0 1 0 .297.205.205 0 0 1-.297 0c-.064-.063-6.894-7.275-12.77-6.491l-1.824 15.994c-.021.127-.106.191-.212.191Z"
   />
   <path
      fill="#000"
      d="M70.501 192.487a.212.212 0 0 1-.212-.212l.467-9.991a.213.213 0 0 1 .424 0l-.467 9.991c0 .127-.084.212-.212.212Z"
   />
   <path
      fill="#fff"
      d="M75 167.839s4.943 12.812-2.736 16.927c-7.7 4.116-14.021-6.109-14.403-7.148-.382-1.018-1.357-5.557-1.357-5.557l14.402-5.155 2.97.424 1.124.509Z"
   />
   <path
      fill="#000"
      d="M68.573 185.954c-.954 0-1.909-.191-2.885-.551-4.688-1.761-7.806-7.149-8.018-7.7-.382-1.018-1.336-5.409-1.379-5.6a.243.243 0 0 1 .128-.255l14.403-5.154c.042-.022.063-.022.106 0l2.97.424c.02 0 .042 0 .063.021l1.145.53a.259.259 0 0 1 .106.107c.022.042 1.252 3.266 1.528 6.978.36 4.943-1.146 8.485-4.37 10.203-1.251.658-2.524.997-3.797.997Zm-11.836-13.766c.19.848.997 4.475 1.315 5.345.34.891 3.542 5.854 7.785 7.445 2.163.806 4.285.679 6.321-.424 7.127-3.818 3.076-15.506 2.673-16.588l-1.04-.466-2.885-.403-14.17 5.091Z"
   />
   <path
      fill="#000"
      d="M74.659 165.993s4.179-.763 3.86 2.121c-.318 2.885-5.684 2.355-7.615-.191l3.755-1.93Z"
   />
   <path
      fill="#7BBEE4"
      d="m56.503 173.227 24.563-8.358a.853.853 0 0 0 .53-1.082.827.827 0 0 0-1.081-.509l-25.582 9.185 1.57.764Z"
   />
   <path
      fill="#7BBEE4"
      d="m75 165.993-2.227-5.345a9.174 9.174 0 0 0-12.24-4.837c-.975.425-1.972.976-2.99 1.634-3.649 2.376-5.218 6.915-3.903 11.072l1.251 3.946 20.11-6.47Z"
   />
   <path
      fill="#000"
      d="M61.106 169.939a.255.255 0 0 1-.19-.106c-2.228-3.691-4.307-8.782-1.634-12.197.042-.043.064-.085.085-.106.021-.064.063-.128.127-.149.106-.042.233 0 .276.106.063.149-.021.234-.149.403-2.524 3.203-.488 8.124 1.655 11.709a.228.228 0 0 1-.064.297.164.164 0 0 1-.106.043Z"
   />
   <path
      fill="#fff"
      d="M57.86 174.138s-.997-3.712-3.967-1.209c-2.948 2.503 1.952 7.976 5.473 5.791l-1.506-4.582Z"
   />
   <path
      fill="#000"
      d="M57.604 179.421c-1.548 0-3.054-.955-3.966-2.228-1.188-1.633-1.146-3.372.127-4.454.933-.785 1.782-1.082 2.545-.827 1.273.403 1.74 2.078 1.76 2.163.022.106-.042.234-.148.255-.106.021-.233-.043-.254-.149 0-.021-.425-1.548-1.464-1.866-.615-.191-1.336.063-2.142.763-1.315 1.103-.891 2.737-.064 3.882 1.167 1.612 3.415 2.715 5.282 1.57a.228.228 0 0 1 .297.063.228.228 0 0 1-.064.297 3.62 3.62 0 0 1-1.909.531Z"
   />
   <path
      fill="#000"
      d="M58.05 177.384c-.084 0-.169-.043-.19-.128-.382-.933-1.464-1.527-2.46-1.336a.233.233 0 0 1-.255-.17.232.232 0 0 1 .17-.254c1.103-.191 2.29.403 2.82 1.4.022.021.043.042.064.085l.043.127c.042.106-.021.233-.127.276h-.064Z"
   />
</svg>
